<svg xmlns="http://www.w3.org/2000/svg" viewBox="0 566 1280 146" width="1280" height="146" role="img" aria-label="Helix Anthropis">
  <!-- HELIX ANTHROPIS wordmark, Helix Green 900 on transparent. First letter is the hands-H at full vector detail. -->
  <g fill="#0B2E24">
  <!-- H -->
  <path d="M 36.39,591.01 C 36.16,591.02 36.10,591.03 36.06,591.09 C 36.02,591.14 36.01,600.57 36.00,638.98 C 36,680.85 36.00,686.81 36.05,686.86 C 36.10,686.93 36.14,686.93 36.83,686.95 C 37.70,686.98 52.53,686.98 54.95,686.95 C 55.88,686.94 56.72,686.92 56.80,686.91 C 56.91,686.88 56.95,686.86 56.97,686.79 C 56.98,686.75 56.99,679.68 56.99,671.08 C 56.99,660.38 57,655.41 57.03,655.32 C 57.11,655.10 57.26,654.75 57.34,654.61 C 57.49,654.33 57.64,654.09 57.69,654.06 C 57.71,654.05 57.73,654.02 57.73,654.00 S 57.90,653.79 58.11,653.58 C 58.70,653.01 59.49,652.50 60.48,652.09 C 60.92,651.90 61.94,651.60 62.28,651.55 C 62.45,651.53 62.65,651.50 62.73,651.48 C 62.96,651.42 63.63,651.38 64.65,651.37 C 65.53,651.36 65.74,651.36 66.32,651.42 C 66.68,651.46 67.25,651.53 67.57,651.58 C 67.89,651.64 68.18,651.68 68.21,651.68 C 68.27,651.68 68.90,651.82 69.84,652.02 C 69.95,652.05 70.25,652.14 70.50,652.22 C 70.75,652.29 71.10,652.40 71.28,652.45 C 71.88,652.63 72.83,652.94 73.06,653.03 C 73.19,653.08 73.42,653.16 73.59,653.22 C 73.89,653.31 73.90,653.31 74.02,653.26 C 74.12,653.22 74.14,653.19 74.12,653.09 C 74.09,652.93 73.89,652.61 73.68,652.36 C 73.66,652.34 73.57,652.23 73.49,652.13 C 73.31,651.88 73.20,651.75 73.04,651.63 C 72.97,651.57 72.84,651.44 72.74,651.33 S 72.49,651.07 72.40,650.99 C 72.30,650.91 72.19,650.80 72.15,650.75 C 72.06,650.65 71.36,650.02 71.07,649.78 C 70.96,649.68 70.57,649.37 70.21,649.07 C 69.85,648.78 69.44,648.44 69.30,648.32 C 69.16,648.19 68.94,648.02 68.81,647.93 S 68.49,647.69 68.40,647.60 C 68.31,647.50 68.15,647.37 68.07,647.31 C 67.89,647.18 67.58,646.84 67.39,646.58 C 67.23,646.35 67.23,646.01 67.40,645.83 C 67.46,645.75 67.58,645.65 67.66,645.61 C 67.79,645.54 67.82,645.53 68.21,645.55 C 68.70,645.56 69.02,645.64 69.32,645.80 C 69.69,645.99 70.41,646.42 70.89,646.73 C 71.31,647.00 71.50,647.13 71.92,647.48 C 72.00,647.54 72.12,647.63 72.18,647.67 S 72.39,647.83 72.51,647.93 C 72.63,648.04 72.76,648.14 72.79,648.17 C 72.85,648.21 72.95,648.30 73.36,648.64 C 73.42,648.69 73.49,648.75 73.52,648.77 S 73.60,648.84 73.63,648.88 C 73.66,648.92 73.78,649.03 73.90,649.13 C 74.02,649.23 74.21,649.40 74.34,649.52 C 74.57,649.75 74.66,649.80 74.73,649.73 C 74.79,649.67 74.74,649.41 74.63,649.30 C 74.58,649.25 74.54,649.18 74.54,649.15 C 74.54,649.11 74.50,649.03 74.45,648.97 C 74.40,648.91 74.36,648.84 74.36,648.82 C 74.36,648.79 74.32,648.72 74.27,648.66 S 74.18,648.53 74.18,648.51 C 74.18,648.45 73.98,648.14 73.72,647.77 C 73.66,647.69 73.58,647.57 73.54,647.50 C 73.43,647.35 73.23,647.06 73.13,646.93 C 73.09,646.87 73.02,646.79 72.98,646.75 C 72.93,646.71 72.90,646.66 72.90,646.63 C 72.89,646.61 72.86,646.53 72.81,646.47 S 72.72,646.34 72.72,646.33 C 72.72,646.28 71.45,644.65 70.90,644.00 C 70.55,643.59 70.32,643.07 70.35,642.83 C 70.38,642.65 70.54,642.40 70.67,642.33 C 70.73,642.29 70.90,642.25 71.05,642.22 C 71.32,642.17 71.33,642.17 71.60,642.23 C 71.88,642.30 72.20,642.46 72.60,642.72 C 72.77,642.82 73.63,643.57 73.63,643.60 C 73.63,643.61 73.74,643.72 73.89,643.86 C 74.02,643.99 74.24,644.23 74.37,644.38 C 74.49,644.54 74.65,644.71 74.71,644.78 C 74.87,644.94 74.97,645.06 75.28,645.44 C 75.43,645.63 75.57,645.80 75.59,645.83 C 75.62,645.85 75.69,645.96 75.75,646.06 C 75.82,646.15 75.89,646.25 75.92,646.28 C 75.94,646.30 75.98,646.35 76.01,646.40 C 76.03,646.44 76.09,646.52 76.14,646.59 C 76.32,646.82 76.42,646.98 76.42,647.01 C 76.42,647.04 76.53,647.21 76.75,647.52 C 76.82,647.62 76.93,647.78 76.99,647.86 C 77.05,647.94 77.13,648.07 77.16,648.15 C 77.20,648.23 77.32,648.45 77.42,648.64 C 77.53,648.83 77.72,649.19 77.86,649.44 C 78.23,650.14 78.54,650.59 78.75,650.73 C 78.94,650.85 79.03,650.87 79.20,650.81 C 79.46,650.73 79.59,650.48 79.70,649.91 C 79.79,649.50 79.80,649.27 79.80,648.25 C 79.80,647.39 79.78,646.98 79.73,646.76 C 79.70,646.60 79.66,646.32 79.64,646.13 C 79.63,645.94 79.57,645.61 79.53,645.39 C 79.47,645.10 79.46,644.76 79.46,644.12 C 79.46,643.27 79.46,643.25 79.56,643.13 C 79.72,642.94 80.01,642.76 80.19,642.74 C 80.49,642.71 80.64,642.75 80.94,642.96 C 81.23,643.17 81.59,643.55 81.68,643.74 C 81.70,643.81 81.74,643.88 81.76,643.91 C 81.88,644.06 82.04,644.30 82.04,644.35 C 82.04,644.38 82.08,644.48 82.12,644.58 C 82.23,644.79 82.40,645.27 82.40,645.35 C 82.40,645.38 82.44,645.48 82.5,645.58 C 82.55,645.67 82.59,645.78 82.59,645.83 C 82.59,645.87 82.63,645.96 82.68,646.03 S 82.76,646.20 82.77,646.28 C 82.77,646.35 82.81,646.50 82.85,646.60 C 82.90,646.71 82.95,646.88 82.97,646.98 C 82.99,647.08 83.03,647.20 83.05,647.24 S 83.11,647.42 83.14,647.54 C 83.17,647.67 83.21,647.79 83.23,647.82 C 83.26,647.85 83.29,647.99 83.32,648.12 C 83.35,648.26 83.39,648.41 83.43,648.47 C 83.46,648.52 83.50,648.67 83.51,648.81 C 83.53,648.94 83.56,649.08 83.59,649.13 S 83.66,649.33 83.69,649.47 S 83.76,649.82 83.80,649.94 S 83.88,650.24 83.91,650.34 C 83.96,650.54 84.03,650.71 84.14,650.96 C 84.19,651.06 84.24,651.20 84.25,651.29 C 84.27,651.37 84.30,651.45 84.33,651.48 C 84.35,651.51 84.40,651.61 84.43,651.72 C 84.65,652.33 84.89,652.66 85.37,652.99 C 85.56,653.12 85.76,653.23 85.83,653.24 C 85.89,653.25 85.99,653.27 86.04,653.29 S 86.26,653.33 86.43,653.33 C 88.27,653.36 88.88,653.39 89.14,653.45 C 89.40,653.51 89.86,653.73 90.08,653.89 C 90.33,654.08 90.75,654.55 90.83,654.74 C 90.84,654.78 90.88,654.86 90.92,654.92 C 90.98,655.02 90.99,656.17 91.01,663.12 C 91.02,667.56 91.04,674.33 91.04,678.16 C 91.04,685.56 91.06,686.82 91.13,686.88 C 91.17,686.91 91.35,686.92 91.84,686.92 C 92.26,686.92 92.61,686.93 92.78,686.95 C 93.01,686.99 94.54,686.99 101.34,687 L 109.62,687 L 109.70,686.93 C 109.82,686.83 109.83,686.75 109.87,683.69 C 109.98,675.76 110,660.87 109.99,614.06 L 109.98,591.08 L 109.90,591.05 C 109.83,591.01 108.01,591.01 100.52,591.00 L 91.21,591 L 91.16,591.06 C 91.05,591.20 91.03,593.56 91.02,609.34 C 91.01,617.87 90.99,624.99 90.97,625.18 S 90.91,625.58 90.88,625.66 S 90.81,625.86 90.81,625.91 S 90.77,626.08 90.72,626.15 C 90.66,626.23 90.57,626.36 90.51,626.45 C 90.29,626.75 90.24,626.82 90.04,627.06 C 89.93,627.19 89.69,627.41 89.51,627.56 C 89.07,627.91 88.15,628.48 87.65,628.70 C 87.43,628.79 87.24,628.87 87.23,628.87 C 87.22,628.87 87.02,628.93 86.78,629.00 C 86.55,629.07 86.23,629.16 86.08,629.20 C 85.93,629.23 85.74,629.28 85.66,629.30 S 85.42,629.35 85.31,629.36 C 85.21,629.37 84.99,629.40 84.81,629.43 C 84.25,629.51 81.77,629.43 81.03,629.30 C 80.90,629.28 80.64,629.24 80.46,629.21 C 80.29,629.18 80.03,629.15 79.89,629.12 S 79.50,629.05 79.32,629.01 C 79.15,628.96 78.94,628.92 78.86,628.90 C 78.79,628.89 78.64,628.85 78.54,628.81 C 78.45,628.78 78.34,628.75 78.30,628.75 S 78.17,628.73 78.08,628.70 S 77.66,628.58 77.38,628.51 S 76.76,628.34 76.65,628.30 S 76.16,628.15 75.82,628.05 S 74.95,627.77 74.64,627.66 S 74.03,627.44 73.96,627.42 C 73.84,627.39 73.70,627.43 73.66,627.50 C 73.62,627.56 73.81,627.93 74.04,628.24 C 74.14,628.37 74.26,628.54 74.32,628.62 C 74.42,628.76 74.62,628.98 74.82,629.17 C 74.87,629.22 74.91,629.27 74.91,629.28 C 74.91,629.30 74.99,629.38 75.08,629.46 C 75.18,629.53 75.32,629.66 75.39,629.74 C 75.46,629.82 75.67,630.02 75.85,630.18 S 76.19,630.48 76.19,630.49 C 76.19,630.52 76.49,630.79 76.81,631.07 C 76.98,631.21 77.32,631.49 77.55,631.69 C 78.30,632.31 78.84,632.75 79.30,633.08 C 79.90,633.53 80.16,633.75 80.42,634.07 C 80.53,634.19 80.54,634.24 80.55,634.47 C 80.55,634.79 80.45,634.94 80.16,635.07 C 79.99,635.14 79.92,635.15 79.60,635.15 C 79.08,635.15 78.69,635.04 78.11,634.71 C 77.99,634.65 77.74,634.51 77.55,634.41 C 77.15,634.19 75.96,633.38 75.65,633.10 C 75.54,632.99 75.34,632.83 75.23,632.74 C 75.11,632.65 74.90,632.46 74.75,632.33 S 74.41,632.01 74.31,631.92 C 74.00,631.64 73.77,631.42 73.63,631.27 C 73.40,631.00 73.19,630.84 73.07,630.83 C 72.97,630.82 72.94,630.83 72.94,630.88 C 72.94,630.96 73.09,631.25 73.19,631.37 C 73.23,631.42 73.26,631.48 73.26,631.50 S 73.30,631.59 73.36,631.64 C 73.41,631.68 73.45,631.75 73.45,631.78 S 73.49,631.90 73.54,631.96 S 73.62,632.10 73.63,632.12 C 73.63,632.18 73.88,632.57 74.09,632.84 C 74.14,632.90 74.18,632.96 74.18,632.98 C 74.18,633.00 74.21,633.06 74.25,633.12 C 74.34,633.25 74.62,633.63 74.68,633.69 C 74.75,633.78 75.01,634.16 75.21,634.46 C 75.27,634.56 75.39,634.71 75.46,634.79 C 75.53,634.86 75.64,635.02 75.71,635.13 C 75.78,635.24 75.92,635.44 76.03,635.57 C 76.36,635.96 76.78,636.51 76.78,636.53 C 76.78,636.54 76.86,636.63 76.94,636.73 C 77.19,637.00 77.47,637.51 77.50,637.74 C 77.52,637.92 77.51,637.96 77.4,638.11 C 77.22,638.34 76.93,638.47 76.63,638.48 C 76.27,638.48 75.79,638.31 75.34,638.02 C 74.95,637.76 74.56,637.47 74.37,637.29 C 74.30,637.22 74.21,637.13 74.17,637.09 C 74.12,637.05 74.05,636.97 74.01,636.93 C 73.97,636.87 73.87,636.78 73.79,636.70 C 73.66,636.57 73.62,636.54 73.44,636.32 C 73.29,636.14 73.24,636.09 73.18,636.05 C 73.04,635.94 71.51,633.95 71.41,633.75 C 71.39,633.71 71.35,633.65 71.32,633.62 C 71.28,633.58 71.25,633.54 71.25,633.52 S 71.21,633.41 71.16,633.34 S 71.03,633.16 70.98,633.09 C 70.86,632.92 70.48,632.27 70.48,632.24 C 70.48,632.23 70.40,632.09 70.31,631.94 C 70.22,631.79 70.12,631.58 70.07,631.47 C 69.68,630.56 69.37,630.07 69.11,629.93 C 68.77,629.74 68.41,629.87 68.27,630.24 C 68.06,630.77 68.03,631.10 68.03,632.58 C 68.03,633.58 68.05,634.04 68.09,634.15 C 68.11,634.23 68.16,634.47 68.19,634.68 C 68.22,634.89 68.27,635.20 68.31,635.37 C 68.35,635.58 68.38,635.97 68.39,636.53 C 68.40,637.35 68.39,637.37 68.29,637.51 C 68.15,637.70 67.81,637.89 67.62,637.89 C 67.41,637.89 67.01,637.76 66.80,637.63 C 66.59,637.50 66.23,637.14 66.15,637.00 C 66.12,636.94 66.07,636.85 66.03,636.81 C 65.98,636.76 65.95,636.69 65.95,636.66 S 65.91,636.56 65.86,636.51 C 65.81,636.46 65.77,636.39 65.77,636.36 S 65.73,636.22 65.68,636.14 S 65.59,635.95 65.59,635.90 C 65.59,635.85 65.55,635.74 65.50,635.65 C 65.45,635.57 65.39,635.44 65.36,635.35 C 65.34,635.27 65.29,635.13 65.26,635.04 C 65.23,634.96 65.18,634.82 65.12,634.74 C 65.08,634.66 65.04,634.54 65.04,634.48 C 65.04,634.42 65.00,634.30 64.95,634.22 S 64.86,634.02 64.86,633.96 C 64.86,633.90 64.82,633.77 64.78,633.67 C 64.75,633.58 64.69,633.39 64.67,633.25 S 64.60,632.98 64.58,632.94 S 64.51,632.76 64.49,632.61 C 64.46,632.45 64.42,632.29 64.39,632.26 S 64.32,632.08 64.30,631.94 C 64.28,631.80 64.24,631.65 64.22,631.62 C 64.19,631.59 64.16,631.48 64.14,631.38 S 64.08,631.07 64.03,630.91 S 63.93,630.55 63.90,630.44 C 63.84,630.18 63.64,629.63 63.48,629.29 C 63.27,628.81 63.15,628.56 63.10,628.49 C 63.06,628.45 63.02,628.38 63.01,628.33 C 62.99,628.28 62.95,628.22 62.93,628.21 S 62.84,628.11 62.77,628.03 C 62.62,627.84 62.47,627.73 62.19,627.59 C 61.75,627.38 61.72,627.37 60.29,627.34 C 58.85,627.30 58.73,627.29 58.32,627.10 C 57.87,626.91 57.36,626.42 57.13,625.99 L 57.02,625.79 L 56.99,615.28 C 56.98,609.50 56.97,601.74 56.99,598.02 C 57.00,594.31 57,591.23 56.98,591.16 C 56.96,591.08 56.93,591.05 56.83,591.02 C 56.72,591.00 37.10,590.99 36.39,591.01 Z"/>
  <!-- E -->
  <path d="M 135.08,592.1 c -0.2,0.21 -0.21,3.62 -0.21,47.37 c 0,42.67 0.01,47.15 0.2,47.32 c 0.17,0.17 3.42,0.2 33.91,0.2 c 28.47,0 33.75,-0.02 33.87,-0.17 c 0.22,-0.27 0.13,-18.21 -0.1,-18.48 c -0.15,-0.2 -1.88,-0.21 -22.62,-0.21 c -20.12,0 -22.48,-0.02 -22.73,-0.2 l -0.27,-0.18 l 0,-9.4 c 0,-5.17 0.03,-9.52 0.07,-9.67 c 0.05,-0.15 0.23,-0.32 0.45,-0.4 c 0.26,-0.1 6.21,-0.13 19.1,-0.13 c 15.95,0 18.73,-0.02 18.95,-0.17 c 0.22,-0.17 0.23,-0.43 0.27,-8.81 c 0.02,-8.51 0.02,-8.63 -0.22,-8.88 c -0.25,-0.25 -0.35,-0.25 -18.93,-0.25 c -16.03,0 -18.76,-0.02 -19.12,-0.17 l -0.43,-0.18 l 0,-9.13 c 0,-6.31 0.03,-9.22 0.13,-9.4 c 0.33,-0.62 -0.6,-0.6 22.61,-0.6 c 20.17,0 21.65,-0.01 21.96,-0.21 c 0.61,-0.4 0.63,-0.6 0.65,-6.16 c 0,-2.85 0.05,-6.65 0.08,-8.43 l 0.08,-3.25 l -0.28,-0.25 c -0.27,-0.25 -0.47,-0.25 -33.73,-0.28 c -32.32,-0.02 -33.47,-0.01 -33.67,0.2 z"/>
  <!-- L -->
  <path d="M 219.08,592.1 c -0.2,0.21 -0.21,3.71 -0.21,47.16 c 0,25.81 0,47.02 0,47.13 c 0,0.11 0.08,0.3 0.2,0.4 c 0.17,0.17 3.15,0.2 30.86,0.2 c 27.92,0 30.68,-0.01 30.87,-0.2 c 0.17,-0.17 0.18,-1.1 0.16,-9.26 c -0.03,-8.8 -0.05,-9.06 -0.27,-9.23 c -0.21,-0.15 -3.08,-0.17 -19.58,-0.17 l -19.32,0 l -0.33,-0.26 l -0.32,-0.26 l 0,-37.62 c 0,-35 -0.01,-37.65 -0.2,-37.87 c -0.2,-0.21 -0.67,-0.22 -10.92,-0.22 c -10.21,0 -10.72,0.01 -10.91,0.22 z"/>
  <!-- I -->
  <path d="M 295.08,592.1 c -0.2,0.21 -0.21,3.68 -0.21,47.37 c 0,42.67 0.01,47.15 0.2,47.32 c 0.17,0.17 1.33,0.2 10.91,0.2 c 10.22,0 10.73,-0.01 10.92,-0.22 c 0.2,-0.21 0.21,-3.67 0.21,-47.28 c 0,-42.38 -0.02,-47.08 -0.2,-47.33 l -0.18,-0.27 l -10.72,0 c -10.22,0 -10.73,0.01 -10.92,0.22 z"/>
  <!-- X -->
  <path d="M 331.27,592.02 c -0.25,0.25 -0.17,0.66 0.17,0.98 c 0.17,0.16 0.43,0.52 0.57,0.8 c 0.15,0.27 0.42,0.7 0.61,0.93 c 0.2,0.23 0.36,0.5 0.36,0.58 c 0,0.08 0.18,0.37 0.41,0.62 c 0.22,0.26 0.51,0.71 0.63,1 c 0.12,0.28 0.35,0.62 0.48,0.75 c 0.13,0.12 0.35,0.46 0.47,0.75 c 0.12,0.28 0.32,0.57 0.46,0.65 c 0.13,0.07 0.37,0.43 0.52,0.82 c 0.15,0.38 0.37,0.76 0.5,0.85 c 0.11,0.08 0.32,0.37 0.47,0.66 c 0.13,0.27 0.35,0.58 0.47,0.68 c 0.11,0.1 0.36,0.51 0.55,0.93 c 0.2,0.42 0.43,0.8 0.55,0.83 c 0.11,0.05 0.3,0.3 0.4,0.55 c 0.11,0.26 0.32,0.61 0.48,0.78 c 0.16,0.17 0.41,0.57 0.55,0.88 c 0.13,0.31 0.37,0.67 0.52,0.81 c 0.15,0.12 0.4,0.5 0.56,0.82 c 0.16,0.32 0.35,0.61 0.42,0.66 c 0.07,0.05 0.27,0.37 0.46,0.72 c 0.17,0.36 0.43,0.72 0.56,0.82 c 0.13,0.08 0.35,0.4 0.47,0.68 c 0.12,0.27 0.4,0.72 0.61,1 c 0.21,0.26 0.38,0.56 0.38,0.65 c 0,0.1 0.18,0.38 0.41,0.63 c 0.23,0.26 0.55,0.73 0.7,1.06 c 0.16,0.33 0.32,0.6 0.37,0.6 c 0.05,0 0.22,0.23 0.38,0.52 c 0.15,0.3 0.43,0.7 0.62,0.91 c 0.18,0.2 0.41,0.57 0.5,0.81 c 0.1,0.23 0.36,0.65 0.58,0.91 c 0.22,0.25 0.41,0.55 0.41,0.65 c 0,0.09 0.18,0.4 0.41,0.65 c 0.22,0.26 0.48,0.66 0.58,0.9 c 0.08,0.22 0.35,0.63 0.58,0.91 c 0.22,0.27 0.41,0.57 0.41,0.67 c 0,0.1 0.18,0.38 0.41,0.63 c 0.22,0.26 0.51,0.71 0.65,1.01 c 0.12,0.3 0.32,0.58 0.43,0.65 c 0.12,0.06 0.31,0.32 0.43,0.57 c 0.11,0.25 0.41,0.71 0.63,1.01 c 0.23,0.31 0.42,0.63 0.42,0.72 c 0,0.09 0.22,0.43 0.5,0.75 c 0.27,0.31 0.5,0.65 0.5,0.73 c 0,0.08 0.17,0.38 0.38,0.65 c 0.22,0.27 0.5,0.72 0.63,1.01 c 0.12,0.28 0.33,0.6 0.46,0.68 c 0.12,0.08 0.35,0.41 0.51,0.72 c 0.16,0.31 0.45,0.76 0.63,1 c 0.2,0.23 0.36,0.5 0.36,0.58 c 0,0.08 0.18,0.37 0.41,0.62 c 0.22,0.26 0.51,0.71 0.63,1 c 0.12,0.28 0.35,0.62 0.48,0.75 c 0.13,0.12 0.35,0.46 0.47,0.76 c 0.12,0.28 0.32,0.56 0.43,0.61 c 0.11,0.03 0.33,0.38 0.51,0.76 c 0.16,0.37 0.47,0.85 0.68,1.05 c 0.35,0.32 0.37,0.4 0.3,0.93 c -0.05,0.41 -0.2,0.7 -0.51,1.05 c -0.23,0.27 -0.43,0.57 -0.43,0.67 c 0,0.09 -0.18,0.4 -0.41,0.65 c -0.22,0.26 -0.51,0.71 -0.65,1.01 c -0.12,0.3 -0.33,0.6 -0.47,0.66 c -0.12,0.07 -0.31,0.33 -0.42,0.58 c -0.1,0.25 -0.31,0.6 -0.47,0.77 c -0.16,0.17 -0.38,0.53 -0.51,0.81 c -0.11,0.27 -0.4,0.71 -0.62,0.97 c -0.23,0.25 -0.42,0.55 -0.42,0.65 c 0,0.09 -0.16,0.36 -0.36,0.58 c -0.18,0.22 -0.48,0.66 -0.63,0.97 c -0.16,0.31 -0.38,0.63 -0.51,0.72 c -0.12,0.08 -0.33,0.41 -0.48,0.72 c -0.13,0.32 -0.41,0.77 -0.62,1 c -0.2,0.23 -0.37,0.51 -0.37,0.61 c 0,0.08 -0.22,0.43 -0.5,0.75 c -0.27,0.31 -0.5,0.65 -0.5,0.75 c 0,0.08 -0.2,0.42 -0.43,0.73 c -0.23,0.31 -0.53,0.78 -0.68,1.06 c -0.13,0.28 -0.31,0.51 -0.38,0.51 c -0.06,0 -0.25,0.27 -0.4,0.6 c -0.16,0.33 -0.46,0.82 -0.68,1.08 c -0.22,0.27 -0.4,0.56 -0.4,0.65 c 0,0.08 -0.18,0.37 -0.41,0.62 c -0.22,0.26 -0.48,0.66 -0.58,0.9 c -0.08,0.22 -0.35,0.63 -0.58,0.91 c -0.22,0.27 -0.41,0.57 -0.41,0.67 c 0,0.1 -0.18,0.38 -0.42,0.65 c -0.23,0.26 -0.52,0.71 -0.63,1 c -0.12,0.28 -0.32,0.58 -0.46,0.66 c -0.13,0.07 -0.32,0.33 -0.43,0.58 c -0.1,0.25 -0.31,0.6 -0.47,0.77 c -0.16,0.17 -0.38,0.53 -0.51,0.81 c -0.11,0.27 -0.4,0.71 -0.62,0.97 c -0.23,0.25 -0.42,0.55 -0.42,0.65 c 0,0.1 -0.16,0.36 -0.36,0.58 c -0.18,0.22 -0.48,0.66 -0.63,0.97 c -0.16,0.31 -0.38,0.63 -0.51,0.72 c -0.12,0.08 -0.33,0.41 -0.48,0.72 c -0.13,0.32 -0.41,0.77 -0.62,1 c -0.2,0.23 -0.37,0.51 -0.37,0.61 c 0,0.08 -0.22,0.43 -0.5,0.75 c -0.27,0.31 -0.5,0.65 -0.5,0.75 c 0,0.08 -0.18,0.42 -0.42,0.72 c -0.23,0.31 -0.51,0.72 -0.61,0.92 c -0.1,0.18 -0.31,0.46 -0.45,0.58 c -0.15,0.13 -0.38,0.5 -0.51,0.8 c -0.13,0.3 -0.41,0.75 -0.62,0.97 c -0.2,0.23 -0.37,0.51 -0.37,0.61 c 0,0.1 -0.18,0.4 -0.41,0.65 c -0.22,0.26 -0.48,0.66 -0.58,0.9 c -0.08,0.22 -0.35,0.63 -0.58,0.91 c -0.22,0.27 -0.41,0.56 -0.41,0.65 c 0,0.08 -0.2,0.38 -0.42,0.66 c -0.23,0.27 -0.52,0.73 -0.65,1.02 c -0.11,0.28 -0.31,0.57 -0.45,0.65 c -0.13,0.07 -0.33,0.36 -0.46,0.65 c -0.12,0.28 -0.32,0.61 -0.45,0.71 c -0.12,0.1 -0.35,0.47 -0.51,0.82 c -0.15,0.35 -0.42,0.72 -0.6,0.83 c -0.35,0.23 -0.42,0.68 -0.17,0.93 c 0.11,0.11 2.88,0.15 11.73,0.15 c 10.37,0 11.61,-0.02 11.78,-0.2 c 0.11,-0.1 0.2,-0.23 0.2,-0.3 c 0,-0.05 0.18,-0.33 0.42,-0.61 c 0.23,-0.28 0.5,-0.72 0.57,-0.98 c 0.08,-0.25 0.31,-0.63 0.51,-0.83 c 0.2,-0.21 0.42,-0.57 0.5,-0.81 c 0.08,-0.23 0.28,-0.6 0.46,-0.81 c 0.17,-0.2 0.41,-0.62 0.55,-0.93 c 0.13,-0.31 0.37,-0.7 0.52,-0.87 c 0.15,-0.17 0.37,-0.57 0.5,-0.9 c 0.11,-0.31 0.3,-0.61 0.4,-0.65 c 0.1,-0.03 0.32,-0.4 0.5,-0.78 c 0.17,-0.4 0.45,-0.86 0.6,-1.03 c 0.16,-0.17 0.36,-0.51 0.45,-0.75 c 0.08,-0.23 0.28,-0.57 0.45,-0.75 c 0.15,-0.17 0.42,-0.63 0.6,-1.03 c 0.17,-0.38 0.4,-0.75 0.5,-0.78 c 0.11,-0.03 0.31,-0.41 0.47,-0.82 c 0.15,-0.41 0.35,-0.77 0.45,-0.81 c 0.1,-0.03 0.33,-0.42 0.52,-0.85 c 0.2,-0.43 0.42,-0.82 0.5,-0.87 c 0.08,-0.05 0.28,-0.41 0.46,-0.8 c 0.17,-0.38 0.4,-0.75 0.5,-0.81 c 0.1,-0.05 0.32,-0.42 0.5,-0.81 c 0.16,-0.38 0.43,-0.83 0.58,-1.01 c 0.16,-0.17 0.35,-0.48 0.42,-0.7 c 0.06,-0.21 0.32,-0.65 0.56,-0.96 c 0.23,-0.31 0.47,-0.72 0.51,-0.92 c 0.05,-0.18 0.25,-0.52 0.43,-0.72 c 0.18,-0.21 0.45,-0.63 0.56,-0.97 c 0.12,-0.32 0.32,-0.66 0.45,-0.75 c 0.13,-0.08 0.36,-0.43 0.5,-0.78 c 0.15,-0.33 0.37,-0.72 0.5,-0.86 c 0.13,-0.13 0.33,-0.47 0.45,-0.75 c 0.11,-0.27 0.36,-0.67 0.55,-0.9 c 0.18,-0.21 0.41,-0.61 0.5,-0.87 c 0.08,-0.26 0.31,-0.65 0.5,-0.85 c 0.18,-0.21 0.41,-0.6 0.5,-0.87 c 0.28,-0.92 0.52,-1.01 1.28,-0.48 c 0.31,0.2 0.57,0.52 0.72,0.9 c 0.13,0.32 0.36,0.7 0.48,0.83 c 0.12,0.13 0.35,0.52 0.5,0.87 c 0.15,0.33 0.35,0.67 0.46,0.72 c 0.1,0.06 0.33,0.46 0.52,0.87 c 0.18,0.42 0.45,0.86 0.57,0.96 c 0.12,0.09 0.32,0.43 0.46,0.75 c 0.13,0.31 0.35,0.67 0.47,0.81 c 0.13,0.13 0.32,0.47 0.43,0.75 c 0.11,0.27 0.36,0.66 0.56,0.87 c 0.18,0.2 0.43,0.65 0.56,0.97 c 0.12,0.32 0.32,0.65 0.43,0.71 c 0.12,0.06 0.31,0.33 0.42,0.61 c 0.1,0.27 0.38,0.75 0.62,1.06 c 0.23,0.31 0.46,0.72 0.51,0.92 c 0.03,0.21 0.23,0.51 0.42,0.68 c 0.2,0.17 0.42,0.53 0.51,0.8 c 0.08,0.26 0.28,0.61 0.45,0.78 c 0.15,0.17 0.38,0.56 0.52,0.87 c 0.13,0.31 0.33,0.65 0.46,0.75 c 0.12,0.1 0.38,0.53 0.57,0.96 c 0.18,0.41 0.42,0.81 0.52,0.87 c 0.11,0.05 0.31,0.37 0.46,0.72 c 0.15,0.33 0.4,0.76 0.55,0.93 c 0.16,0.17 0.36,0.51 0.45,0.75 c 0.08,0.23 0.28,0.57 0.45,0.75 c 0.16,0.17 0.37,0.53 0.48,0.81 c 0.11,0.27 0.36,0.66 0.56,0.87 c 0.18,0.2 0.41,0.58 0.5,0.85 c 0.08,0.26 0.31,0.66 0.5,0.87 c 0.18,0.22 0.43,0.62 0.55,0.9 c 0.12,0.27 0.33,0.63 0.5,0.81 c 0.16,0.17 0.36,0.51 0.43,0.75 c 0.07,0.23 0.3,0.6 0.5,0.81 c 0.18,0.2 0.42,0.57 0.51,0.81 c 0.08,0.23 0.35,0.68 0.58,0.98 c 0.22,0.3 0.41,0.62 0.41,0.7 c 0,0.08 0.1,0.23 0.22,0.35 c 0.21,0.2 1.35,0.21 13.85,0.21 c 10.43,0 13.66,-0.03 13.77,-0.15 c 0.26,-0.26 0.16,-0.68 -0.22,-1.02 c -0.21,-0.17 -0.47,-0.52 -0.58,-0.78 c -0.1,-0.26 -0.38,-0.68 -0.61,-0.95 c -0.23,-0.25 -0.42,-0.55 -0.42,-0.65 c 0,-0.1 -0.17,-0.37 -0.37,-0.61 c -0.21,-0.22 -0.48,-0.67 -0.62,-0.97 c -0.12,-0.3 -0.36,-0.66 -0.51,-0.8 c -0.13,-0.12 -0.35,-0.4 -0.45,-0.58 c -0.1,-0.2 -0.37,-0.61 -0.61,-0.92 c -0.23,-0.3 -0.42,-0.63 -0.42,-0.72 c 0,-0.1 -0.22,-0.43 -0.5,-0.75 c -0.27,-0.31 -0.5,-0.65 -0.5,-0.72 c 0,-0.08 -0.16,-0.35 -0.36,-0.58 c -0.18,-0.23 -0.5,-0.72 -0.67,-1.07 c -0.17,-0.35 -0.41,-0.67 -0.52,-0.72 c -0.11,-0.03 -0.28,-0.27 -0.38,-0.51 c -0.1,-0.23 -0.37,-0.7 -0.61,-1.01 c -0.23,-0.31 -0.43,-0.65 -0.43,-0.76 c 0,-0.1 -0.17,-0.35 -0.37,-0.56 c -0.21,-0.21 -0.5,-0.61 -0.65,-0.9 c -0.13,-0.27 -0.42,-0.71 -0.61,-0.95 c -0.2,-0.23 -0.36,-0.5 -0.36,-0.58 c 0,-0.07 -0.22,-0.41 -0.5,-0.72 c -0.27,-0.31 -0.5,-0.65 -0.5,-0.75 c 0,-0.08 -0.18,-0.42 -0.42,-0.72 c -0.23,-0.31 -0.51,-0.72 -0.61,-0.92 c -0.1,-0.18 -0.31,-0.46 -0.45,-0.58 c -0.15,-0.13 -0.38,-0.5 -0.51,-0.8 c -0.13,-0.3 -0.41,-0.75 -0.62,-0.97 c -0.2,-0.23 -0.37,-0.51 -0.37,-0.61 c 0,-0.1 -0.18,-0.4 -0.42,-0.66 c -0.23,-0.26 -0.52,-0.71 -0.63,-1 c -0.12,-0.28 -0.31,-0.6 -0.43,-0.68 c -0.11,-0.07 -0.31,-0.35 -0.43,-0.58 c -0.11,-0.23 -0.35,-0.57 -0.51,-0.75 c -0.15,-0.17 -0.37,-0.53 -0.5,-0.81 c -0.11,-0.27 -0.4,-0.71 -0.62,-0.97 c -0.23,-0.25 -0.42,-0.53 -0.42,-0.62 c 0,-0.08 -0.18,-0.38 -0.41,-0.66 c -0.22,-0.26 -0.48,-0.67 -0.58,-0.91 c -0.08,-0.22 -0.35,-0.61 -0.58,-0.85 c -0.22,-0.25 -0.41,-0.52 -0.41,-0.61 c 0,-0.08 -0.17,-0.36 -0.37,-0.6 c -0.21,-0.22 -0.48,-0.67 -0.62,-0.97 c -0.12,-0.3 -0.36,-0.66 -0.51,-0.8 c -0.15,-0.12 -0.4,-0.5 -0.56,-0.82 c -0.16,-0.32 -0.35,-0.61 -0.42,-0.66 c -0.07,-0.05 -0.3,-0.41 -0.5,-0.8 c -0.2,-0.4 -0.45,-0.76 -0.56,-0.81 c -0.11,-0.03 -0.28,-0.27 -0.38,-0.51 c -0.1,-0.23 -0.37,-0.7 -0.61,-1.01 c -0.23,-0.31 -0.43,-0.65 -0.43,-0.76 c 0,-0.09 -0.17,-0.35 -0.37,-0.56 c -0.21,-0.21 -0.5,-0.61 -0.65,-0.9 c -0.13,-0.27 -0.42,-0.7 -0.61,-0.92 c -0.2,-0.22 -0.36,-0.48 -0.36,-0.58 c 0,-0.1 -0.18,-0.4 -0.42,-0.65 c -0.22,-0.26 -0.5,-0.67 -0.61,-0.91 c -0.1,-0.23 -0.3,-0.57 -0.46,-0.75 c -0.15,-0.17 -0.37,-0.51 -0.5,-0.75 c -0.12,-0.23 -0.35,-0.55 -0.48,-0.67 c -0.15,-0.13 -0.38,-0.5 -0.52,-0.81 c -0.13,-0.31 -0.38,-0.71 -0.55,-0.88 c -0.16,-0.17 -0.37,-0.52 -0.47,-0.77 c -0.11,-0.25 -0.3,-0.51 -0.43,-0.58 c -0.27,-0.15 -0.52,-0.75 -0.52,-1.27 c 0,-0.21 0.15,-0.52 0.36,-0.76 c 0.18,-0.22 0.5,-0.7 0.67,-1.05 c 0.17,-0.35 0.41,-0.67 0.52,-0.72 c 0.11,-0.03 0.28,-0.28 0.38,-0.53 c 0.11,-0.26 0.32,-0.61 0.48,-0.78 c 0.16,-0.17 0.41,-0.57 0.55,-0.88 c 0.13,-0.31 0.37,-0.67 0.52,-0.81 c 0.13,-0.12 0.37,-0.46 0.51,-0.73 c 0.15,-0.27 0.42,-0.68 0.61,-0.91 c 0.2,-0.22 0.36,-0.48 0.36,-0.58 c 0,-0.08 0.22,-0.43 0.5,-0.75 c 0.27,-0.31 0.5,-0.66 0.5,-0.75 c 0,-0.1 0.16,-0.36 0.36,-0.58 c 0.18,-0.22 0.47,-0.65 0.61,-0.92 c 0.15,-0.28 0.43,-0.68 0.65,-0.9 c 0.2,-0.21 0.37,-0.46 0.37,-0.56 c 0,-0.11 0.2,-0.45 0.43,-0.76 c 0.23,-0.31 0.51,-0.77 0.61,-1.01 c 0.1,-0.23 0.27,-0.47 0.38,-0.51 c 0.11,-0.05 0.35,-0.37 0.52,-0.72 c 0.17,-0.35 0.48,-0.83 0.67,-1.07 c 0.2,-0.23 0.36,-0.5 0.36,-0.58 c 0,-0.08 0.18,-0.37 0.42,-0.62 c 0.22,-0.26 0.51,-0.67 0.62,-0.91 c 0.23,-0.48 0.88,-1.47 1.4,-2.1 c 0.18,-0.23 0.46,-0.68 0.61,-1 c 0.15,-0.32 0.37,-0.67 0.5,-0.77 c 0.12,-0.1 0.32,-0.42 0.45,-0.72 c 0.12,-0.28 0.32,-0.56 0.42,-0.6 c 0.11,-0.05 0.35,-0.37 0.52,-0.72 c 0.17,-0.35 0.48,-0.82 0.67,-1.05 c 0.2,-0.22 0.36,-0.48 0.36,-0.58 c 0,-0.1 0.18,-0.4 0.41,-0.65 c 0.23,-0.26 0.55,-0.73 0.7,-1.07 c 0.16,-0.32 0.33,-0.58 0.4,-0.58 c 0.06,0 0.25,-0.26 0.41,-0.6 c 0.16,-0.32 0.42,-0.7 0.57,-0.83 c 0.15,-0.13 0.4,-0.53 0.56,-0.87 c 0.15,-0.35 0.37,-0.7 0.48,-0.8 c 0.12,-0.1 0.33,-0.41 0.47,-0.68 c 0.15,-0.28 0.36,-0.58 0.47,-0.66 c 0.12,-0.08 0.31,-0.4 0.43,-0.68 c 0.11,-0.28 0.4,-0.73 0.63,-1 c 0.23,-0.26 0.42,-0.56 0.42,-0.66 c 0,-0.1 0.18,-0.4 0.41,-0.65 c 0.22,-0.26 0.51,-0.71 0.65,-1.01 c 0.12,-0.3 0.33,-0.6 0.47,-0.66 c 0.12,-0.07 0.31,-0.33 0.42,-0.58 c 0.1,-0.25 0.31,-0.6 0.47,-0.77 c 0.16,-0.17 0.41,-0.57 0.55,-0.88 c 0.13,-0.31 0.37,-0.67 0.52,-0.81 c 0.13,-0.12 0.37,-0.46 0.51,-0.73 c 0.15,-0.27 0.42,-0.68 0.61,-0.91 c 0.43,-0.48 0.55,-0.91 0.36,-1.26 l -0.13,-0.26 l -11.27,0 l -11.28,0 l -0.51,0.52 c -0.28,0.3 -0.61,0.76 -0.72,1.03 c -0.11,0.27 -0.35,0.63 -0.51,0.81 c -0.16,0.17 -0.37,0.56 -0.48,0.87 c -0.11,0.31 -0.36,0.72 -0.55,0.93 c -0.2,0.2 -0.42,0.58 -0.51,0.85 c -0.08,0.26 -0.31,0.66 -0.5,0.87 c -0.18,0.22 -0.43,0.62 -0.55,0.9 c -0.11,0.27 -0.31,0.61 -0.45,0.75 c -0.12,0.13 -0.35,0.52 -0.5,0.87 c -0.15,0.33 -0.35,0.67 -0.46,0.73 c -0.1,0.05 -0.32,0.42 -0.5,0.81 c -0.16,0.38 -0.43,0.83 -0.58,1.01 c -0.16,0.17 -0.35,0.48 -0.42,0.7 c -0.06,0.21 -0.32,0.65 -0.56,0.96 c -0.23,0.31 -0.47,0.72 -0.51,0.92 c -0.05,0.18 -0.25,0.51 -0.43,0.72 c -0.18,0.2 -0.45,0.63 -0.56,0.97 c -0.12,0.32 -0.32,0.66 -0.45,0.75 c -0.13,0.08 -0.36,0.43 -0.5,0.78 c -0.15,0.33 -0.37,0.72 -0.5,0.86 c -0.13,0.13 -0.33,0.47 -0.45,0.75 c -0.11,0.27 -0.36,0.67 -0.55,0.9 c -0.18,0.21 -0.41,0.61 -0.5,0.87 c -0.08,0.26 -0.31,0.65 -0.51,0.85 c -0.2,0.21 -0.42,0.57 -0.5,0.81 c -0.07,0.23 -0.3,0.63 -0.48,0.88 c -0.2,0.25 -0.45,0.66 -0.56,0.93 c -0.11,0.26 -0.3,0.6 -0.43,0.73 c -0.12,0.13 -0.35,0.52 -0.5,0.86 c -0.13,0.35 -0.36,0.68 -0.48,0.78 c -0.12,0.08 -0.36,0.46 -0.51,0.85 c -0.18,0.45 -0.35,0.68 -0.48,0.68 c -0.33,0 -1.21,-1 -1.56,-1.78 c -0.17,-0.38 -0.4,-0.75 -0.5,-0.78 c -0.1,-0.03 -0.28,-0.33 -0.4,-0.65 c -0.12,-0.32 -0.35,-0.72 -0.5,-0.9 c -0.16,-0.17 -0.37,-0.53 -0.48,-0.8 c -0.11,-0.27 -0.36,-0.68 -0.56,-0.93 c -0.18,-0.25 -0.41,-0.65 -0.48,-0.88 c -0.07,-0.23 -0.3,-0.6 -0.5,-0.81 c -0.2,-0.2 -0.46,-0.65 -0.57,-0.97 c -0.12,-0.33 -0.31,-0.63 -0.41,-0.68 c -0.1,-0.03 -0.31,-0.35 -0.46,-0.71 c -0.16,-0.35 -0.42,-0.8 -0.58,-1.01 c -0.17,-0.2 -0.37,-0.56 -0.46,-0.8 c -0.07,-0.23 -0.3,-0.6 -0.5,-0.81 c -0.2,-0.2 -0.42,-0.58 -0.51,-0.85 c -0.08,-0.26 -0.31,-0.66 -0.5,-0.87 c -0.18,-0.22 -0.43,-0.62 -0.55,-0.9 c -0.11,-0.27 -0.32,-0.61 -0.45,-0.75 c -0.12,-0.13 -0.32,-0.47 -0.43,-0.75 c -0.11,-0.27 -0.36,-0.67 -0.56,-0.87 c -0.18,-0.21 -0.41,-0.58 -0.5,-0.85 c -0.08,-0.26 -0.31,-0.66 -0.5,-0.87 c -0.18,-0.22 -0.43,-0.62 -0.55,-0.9 c -0.11,-0.27 -0.31,-0.61 -0.45,-0.75 c -0.12,-0.13 -0.35,-0.53 -0.5,-0.87 c -0.15,-0.35 -0.35,-0.67 -0.46,-0.73 c -0.1,-0.05 -0.32,-0.42 -0.5,-0.81 c -0.16,-0.38 -0.43,-0.83 -0.6,-1.01 c -0.15,-0.17 -0.35,-0.51 -0.42,-0.76 c -0.08,-0.25 -0.26,-0.56 -0.41,-0.68 c -0.13,-0.13 -0.38,-0.53 -0.55,-0.9 c -0.2,-0.43 -0.4,-0.7 -0.62,-0.77 c -0.5,-0.2 -26.96,-0.16 -27.15,0.02 z"/>
  <!-- A -->
  <path d="M 488.85,592.07 c -0.43,0.22 -0.7,0.73 -0.86,1.63 c -0.07,0.37 -0.3,1.01 -0.5,1.4 c -0.2,0.38 -0.42,1.01 -0.48,1.38 c -0.07,0.37 -0.28,1 -0.48,1.37 c -0.2,0.38 -0.42,1.02 -0.5,1.42 c -0.07,0.4 -0.3,1.01 -0.5,1.37 c -0.2,0.35 -0.43,1 -0.51,1.45 c -0.07,0.45 -0.27,1.01 -0.42,1.25 c -0.31,0.47 -0.51,1.03 -0.63,1.81 c -0.05,0.27 -0.23,0.77 -0.43,1.12 c -0.18,0.33 -0.43,1.03 -0.55,1.53 c -0.1,0.5 -0.33,1.15 -0.5,1.43 c -0.16,0.28 -0.36,0.86 -0.45,1.27 c -0.08,0.41 -0.28,0.98 -0.45,1.27 c -0.17,0.3 -0.42,1 -0.56,1.56 c -0.13,0.56 -0.36,1.17 -0.5,1.36 c -0.12,0.18 -0.32,0.75 -0.43,1.26 c -0.11,0.5 -0.36,1.18 -0.55,1.53 c -0.18,0.33 -0.43,1.02 -0.53,1.52 c -0.11,0.5 -0.33,1.11 -0.51,1.37 c -0.17,0.26 -0.37,0.83 -0.45,1.28 c -0.07,0.45 -0.3,1.08 -0.5,1.43 c -0.18,0.33 -0.43,1.03 -0.55,1.53 c -0.11,0.51 -0.31,1.07 -0.45,1.27 c -0.13,0.2 -0.33,0.76 -0.45,1.27 c -0.11,0.5 -0.36,1.18 -0.55,1.53 c -0.2,0.33 -0.42,0.98 -0.5,1.43 c -0.07,0.45 -0.27,1.02 -0.45,1.28 c -0.17,0.26 -0.4,0.87 -0.51,1.37 c -0.1,0.5 -0.35,1.17 -0.53,1.52 c -0.18,0.33 -0.43,1.03 -0.55,1.53 c -0.11,0.51 -0.3,1.07 -0.43,1.25 c -0.25,0.37 -0.45,0.95 -0.57,1.71 c -0.05,0.27 -0.23,0.77 -0.43,1.12 c -0.18,0.33 -0.43,1.03 -0.55,1.53 c -0.11,0.51 -0.31,1.07 -0.45,1.27 c -0.13,0.2 -0.33,0.76 -0.45,1.27 c -0.11,0.5 -0.36,1.18 -0.55,1.53 c -0.2,0.33 -0.38,0.85 -0.43,1.12 c -0.12,0.77 -0.32,1.33 -0.63,1.81 c -0.15,0.23 -0.35,0.8 -0.42,1.25 c -0.07,0.45 -0.3,1.08 -0.5,1.43 c -0.18,0.33 -0.43,1.03 -0.55,1.53 c -0.11,0.51 -0.3,1.07 -0.43,1.25 c -0.25,0.37 -0.45,0.95 -0.57,1.71 c -0.05,0.27 -0.23,0.77 -0.43,1.12 c -0.2,0.33 -0.41,0.95 -0.48,1.36 c -0.07,0.4 -0.3,1.01 -0.5,1.37 c -0.2,0.35 -0.42,1.02 -0.51,1.48 c -0.08,0.46 -0.28,1.03 -0.43,1.26 c -0.3,0.45 -0.5,0.97 -0.62,1.76 c -0.05,0.26 -0.25,0.8 -0.45,1.18 c -0.2,0.38 -0.42,1.03 -0.5,1.43 c -0.07,0.41 -0.28,1.02 -0.48,1.37 c -0.18,0.33 -0.41,0.96 -0.5,1.36 c -0.08,0.41 -0.31,1.06 -0.51,1.43 c -0.2,0.38 -0.42,1.01 -0.48,1.38 c -0.07,0.37 -0.28,0.98 -0.48,1.37 c -0.18,0.37 -0.43,1.08 -0.55,1.57 c -0.11,0.48 -0.33,1.1 -0.5,1.35 c -0.18,0.25 -0.37,0.8 -0.46,1.28 c -0.07,0.47 -0.3,1.12 -0.5,1.47 c -0.18,0.33 -0.41,0.96 -0.5,1.37 c -0.08,0.41 -0.31,1.02 -0.5,1.37 c -0.2,0.33 -0.41,0.96 -0.48,1.36 c -0.07,0.41 -0.33,1.12 -0.57,1.58 c -0.45,0.87 -0.55,1.45 -0.28,1.71 c 0.11,0.11 2.7,0.15 10.85,0.15 c 9.45,0 10.72,-0.02 10.97,-0.18 c 0.43,-0.31 0.87,-1.18 1.02,-2.06 c 0.07,-0.45 0.28,-1.02 0.45,-1.28 c 0.17,-0.26 0.4,-0.86 0.5,-1.33 c 0.21,-1.02 0.27,-1.2 0.62,-1.71 c 0.15,-0.22 0.33,-0.78 0.42,-1.25 c 0.08,-0.46 0.31,-1.13 0.51,-1.47 c 0.18,-0.35 0.43,-1.03 0.53,-1.53 c 0.1,-0.5 0.3,-1.06 0.42,-1.25 c 0.26,-0.37 0.46,-0.93 0.58,-1.71 c 0.05,-0.27 0.23,-0.78 0.43,-1.12 c 0.2,-0.35 0.38,-0.85 0.43,-1.12 c 0.12,-0.76 0.32,-1.33 0.57,-1.7 c 0.12,-0.18 0.31,-0.68 0.41,-1.12 c 0.32,-1.37 -1.52,-1.23 16.46,-1.23 c 11.26,0 15.81,0.03 16.02,0.13 c 0.33,0.15 0.58,0.58 0.58,1.03 c 0,0.4 0.23,1.05 0.57,1.57 c 0.15,0.23 0.36,0.86 0.46,1.38 c 0.1,0.52 0.32,1.17 0.5,1.43 c 0.17,0.27 0.4,0.92 0.5,1.46 c 0.11,0.52 0.3,1.11 0.43,1.31 c 0.26,0.36 0.46,0.93 0.58,1.71 c 0.05,0.26 0.23,0.8 0.43,1.18 c 0.2,0.37 0.42,1.02 0.5,1.43 c 0.08,0.41 0.31,1.06 0.5,1.43 c 0.2,0.37 0.42,1.02 0.5,1.43 c 0.08,0.41 0.31,1.06 0.51,1.43 c 0.18,0.37 0.4,1.01 0.47,1.4 c 0.17,0.97 0.42,1.42 0.9,1.58 c 0.43,0.15 20.81,0.17 21.35,0.02 c 0.52,-0.15 0.6,-0.43 0.23,-0.97 c -0.18,-0.26 -0.4,-0.81 -0.47,-1.22 c -0.08,-0.41 -0.31,-1.03 -0.5,-1.37 c -0.2,-0.35 -0.42,-0.98 -0.5,-1.43 c -0.07,-0.45 -0.27,-1.01 -0.42,-1.25 c -0.31,-0.47 -0.51,-1.03 -0.63,-1.81 c -0.05,-0.27 -0.23,-0.78 -0.43,-1.12 c -0.18,-0.35 -0.43,-1.03 -0.55,-1.53 c -0.11,-0.51 -0.31,-1.07 -0.45,-1.27 c -0.13,-0.2 -0.33,-0.76 -0.45,-1.27 c -0.11,-0.5 -0.36,-1.2 -0.55,-1.53 c -0.2,-0.35 -0.38,-0.85 -0.43,-1.12 c -0.12,-0.76 -0.32,-1.33 -0.57,-1.71 c -0.13,-0.17 -0.32,-0.73 -0.43,-1.25 c -0.11,-0.5 -0.36,-1.2 -0.55,-1.53 c -0.18,-0.35 -0.43,-1.02 -0.53,-1.52 c -0.11,-0.5 -0.33,-1.11 -0.51,-1.37 c -0.17,-0.26 -0.37,-0.83 -0.45,-1.28 c -0.07,-0.45 -0.3,-1.1 -0.5,-1.43 c -0.18,-0.35 -0.41,-0.96 -0.5,-1.37 c -0.07,-0.41 -0.3,-1.06 -0.5,-1.43 c -0.18,-0.37 -0.41,-1.02 -0.5,-1.43 c -0.08,-0.41 -0.31,-1.03 -0.5,-1.37 c -0.2,-0.35 -0.42,-0.98 -0.5,-1.43 c -0.07,-0.45 -0.28,-1.02 -0.45,-1.28 c -0.17,-0.26 -0.4,-0.88 -0.5,-1.37 c -0.11,-0.5 -0.35,-1.17 -0.53,-1.52 c -0.2,-0.33 -0.45,-1.03 -0.56,-1.53 c -0.11,-0.51 -0.3,-1.07 -0.43,-1.25 c -0.25,-0.37 -0.45,-0.95 -0.57,-1.71 c -0.05,-0.27 -0.23,-0.78 -0.43,-1.12 c -0.18,-0.35 -0.43,-1.03 -0.55,-1.53 c -0.11,-0.51 -0.31,-1.07 -0.45,-1.27 c -0.13,-0.2 -0.33,-0.76 -0.45,-1.27 c -0.11,-0.5 -0.36,-1.2 -0.55,-1.53 c -0.2,-0.35 -0.42,-0.98 -0.5,-1.43 c -0.07,-0.45 -0.27,-1.01 -0.42,-1.25 c -0.31,-0.47 -0.51,-1.03 -0.63,-1.81 c -0.05,-0.27 -0.23,-0.78 -0.43,-1.12 c -0.18,-0.35 -0.43,-1.03 -0.55,-1.53 c -0.11,-0.51 -0.31,-1.07 -0.45,-1.27 c -0.13,-0.2 -0.33,-0.76 -0.45,-1.27 c -0.11,-0.5 -0.36,-1.2 -0.55,-1.53 c -0.2,-0.35 -0.41,-0.95 -0.48,-1.33 c -0.06,-0.4 -0.3,-1.03 -0.5,-1.43 c -0.2,-0.4 -0.43,-1.06 -0.51,-1.47 c -0.08,-0.41 -0.31,-1.03 -0.5,-1.37 c -0.2,-0.35 -0.43,-1.02 -0.55,-1.52 c -0.1,-0.48 -0.32,-1.11 -0.5,-1.37 c -0.16,-0.26 -0.37,-0.83 -0.45,-1.28 c -0.07,-0.45 -0.3,-1.1 -0.5,-1.43 c -0.2,-0.35 -0.41,-0.95 -0.48,-1.33 c -0.06,-0.4 -0.3,-1.03 -0.5,-1.43 c -0.2,-0.4 -0.43,-1.06 -0.51,-1.47 c -0.08,-0.41 -0.31,-1.03 -0.5,-1.37 c -0.2,-0.35 -0.42,-0.98 -0.5,-1.43 c -0.07,-0.45 -0.27,-1.02 -0.45,-1.28 c -0.17,-0.26 -0.4,-0.87 -0.51,-1.37 c -0.1,-0.5 -0.35,-1.18 -0.53,-1.52 c -0.18,-0.35 -0.43,-1.03 -0.55,-1.53 c -0.11,-0.51 -0.3,-1.07 -0.43,-1.25 c -0.25,-0.36 -0.45,-0.95 -0.56,-1.67 c -0.05,-0.25 -0.23,-0.75 -0.43,-1.12 c -0.18,-0.36 -0.43,-1.07 -0.55,-1.57 c -0.11,-0.51 -0.32,-1.07 -0.46,-1.27 c -0.13,-0.18 -0.35,-0.78 -0.48,-1.32 c -0.12,-0.55 -0.45,-1.41 -0.72,-1.92 l -0.48,-0.93 l -11.3,-0.02 c -9.81,-0.02 -11.36,0 -11.65,0.16 z m 12.08,22.65 c 0.2,1.21 0.33,1.72 0.56,2.1 c 0.13,0.21 0.36,0.91 0.5,1.55 c 0.13,0.63 0.36,1.33 0.5,1.56 c 0.13,0.22 0.36,0.92 0.5,1.56 c 0.13,0.63 0.36,1.33 0.5,1.56 c 0.13,0.22 0.36,0.92 0.5,1.56 c 0.13,0.63 0.36,1.33 0.5,1.56 c 0.13,0.22 0.36,0.91 0.48,1.51 c 0.13,0.61 0.38,1.36 0.56,1.67 c 0.16,0.31 0.37,0.95 0.45,1.43 c 0.07,0.48 0.28,1.18 0.5,1.58 c 0.2,0.4 0.42,1.1 0.5,1.56 c 0.07,0.46 0.3,1.16 0.48,1.53 c 0.2,0.37 0.42,1.07 0.5,1.55 c 0.08,0.47 0.31,1.17 0.5,1.56 c 0.2,0.38 0.42,1.08 0.5,1.56 c 0.08,0.47 0.31,1.17 0.5,1.56 c 0.2,0.38 0.42,1.08 0.5,1.56 c 0.08,0.47 0.32,1.18 0.52,1.6 c 0.47,0.95 0.6,1.85 0.31,2.28 l -0.2,0.31 l -10.12,0 c -7.46,0 -10.2,-0.03 -10.43,-0.15 c -0.42,-0.18 -0.51,-0.63 -0.27,-1.33 c 0.11,-0.31 0.23,-0.82 0.28,-1.13 c 0.03,-0.31 0.23,-0.87 0.42,-1.26 c 0.2,-0.37 0.42,-1.05 0.5,-1.5 c 0.07,-0.43 0.3,-1.13 0.5,-1.55 c 0.2,-0.41 0.42,-1.11 0.5,-1.56 c 0.07,-0.45 0.3,-1.12 0.48,-1.5 c 0.2,-0.37 0.42,-1.07 0.5,-1.55 c 0.08,-0.47 0.31,-1.17 0.51,-1.56 c 0.18,-0.38 0.41,-1.1 0.5,-1.57 c 0.07,-0.48 0.27,-1.11 0.45,-1.4 c 0.17,-0.3 0.41,-1.02 0.55,-1.62 c 0.12,-0.61 0.37,-1.36 0.53,-1.68 c 0.17,-0.32 0.37,-0.96 0.45,-1.42 c 0.08,-0.46 0.31,-1.15 0.51,-1.55 c 0.2,-0.38 0.42,-1.06 0.5,-1.51 c 0.07,-0.43 0.3,-1.13 0.5,-1.55 c 0.2,-0.41 0.42,-1.11 0.5,-1.56 c 0.08,-0.45 0.31,-1.15 0.51,-1.56 c 0.2,-0.41 0.43,-1.15 0.53,-1.62 c 0.16,-0.78 0.93,-2.77 1.22,-3.15 c 0.21,-0.26 0.58,0.05 0.66,0.56 z"/>
  <!-- N -->
  <path d="M 559.08,592.1 c -0.2,0.21 -0.21,3.68 -0.21,47.37 c 0,42.67 0.01,47.15 0.2,47.32 c 0.17,0.17 1.33,0.2 10.91,0.2 c 10.26,0 10.73,-0.01 10.93,-0.22 c 0.18,-0.22 0.2,-2.37 0.2,-29.96 c -0.01,-27.07 0.01,-29.75 0.18,-29.92 c 0.18,-0.18 0.22,-0.16 0.47,0.15 c 0.15,0.2 0.48,0.58 0.75,0.87 c 0.25,0.27 0.46,0.57 0.46,0.66 c 0,0.07 0.22,0.42 0.5,0.75 c 0.27,0.33 0.5,0.67 0.5,0.76 c 0,0.08 0.18,0.37 0.42,0.62 c 0.22,0.26 0.51,0.65 0.62,0.87 c 0.11,0.21 0.3,0.47 0.43,0.56 c 0.12,0.08 0.35,0.41 0.51,0.72 c 0.15,0.31 0.45,0.75 0.63,0.97 c 0.2,0.22 0.36,0.46 0.36,0.52 c 0,0.06 0.21,0.36 0.47,0.67 c 0.45,0.53 0.86,1.16 1.51,2.25 c 0.17,0.28 0.41,0.58 0.53,0.67 c 0.12,0.08 0.33,0.37 0.46,0.63 c 0.13,0.25 0.33,0.55 0.45,0.63 c 0.11,0.09 0.35,0.46 0.52,0.8 c 0.17,0.35 0.42,0.71 0.55,0.8 c 0.13,0.08 0.32,0.35 0.43,0.56 c 0.11,0.22 0.4,0.61 0.62,0.87 c 0.23,0.25 0.42,0.55 0.42,0.63 c 0,0.1 0.22,0.45 0.5,0.76 c 0.27,0.31 0.5,0.62 0.5,0.68 c 0,0.06 0.22,0.37 0.5,0.68 c 0.27,0.31 0.5,0.65 0.5,0.73 c 0,0.08 0.18,0.37 0.42,0.65 c 0.22,0.26 0.53,0.72 0.67,1 c 0.15,0.28 0.35,0.55 0.45,0.58 c 0.11,0.05 0.27,0.26 0.36,0.5 c 0.1,0.22 0.36,0.61 0.57,0.86 c 0.21,0.25 0.47,0.65 0.57,0.9 c 0.1,0.23 0.31,0.52 0.47,0.63 c 0.16,0.09 0.38,0.41 0.51,0.7 c 0.12,0.27 0.31,0.53 0.41,0.57 c 0.08,0.03 0.31,0.36 0.5,0.71 c 0.17,0.35 0.47,0.8 0.66,1.01 c 0.18,0.2 0.38,0.5 0.42,0.65 c 0.05,0.13 0.22,0.35 0.38,0.46 c 0.16,0.11 0.41,0.43 0.53,0.72 c 0.13,0.3 0.38,0.7 0.57,0.88 c 0.17,0.2 0.41,0.55 0.51,0.78 c 0.1,0.23 0.26,0.46 0.37,0.5 c 0.11,0.05 0.33,0.35 0.5,0.66 c 0.16,0.32 0.38,0.66 0.5,0.76 c 0.11,0.08 0.32,0.4 0.46,0.67 c 0.13,0.28 0.45,0.72 0.67,0.98 c 0.23,0.25 0.42,0.51 0.42,0.57 c 0,0.06 0.22,0.38 0.5,0.71 c 0.27,0.33 0.5,0.67 0.5,0.76 c 0,0.08 0.18,0.37 0.42,0.62 c 0.22,0.26 0.51,0.65 0.62,0.87 c 0.11,0.21 0.3,0.47 0.43,0.56 c 0.12,0.08 0.35,0.41 0.51,0.72 c 0.15,0.31 0.45,0.75 0.63,0.97 c 0.2,0.22 0.36,0.46 0.36,0.52 c 0,0.06 0.21,0.36 0.47,0.67 c 0.45,0.53 0.86,1.16 1.51,2.25 c 0.17,0.28 0.41,0.58 0.53,0.67 c 0.12,0.08 0.33,0.37 0.46,0.63 c 0.13,0.25 0.33,0.55 0.45,0.63 c 0.11,0.1 0.35,0.46 0.52,0.8 c 0.17,0.35 0.42,0.71 0.55,0.8 c 0.13,0.08 0.32,0.35 0.43,0.56 c 0.11,0.22 0.4,0.61 0.62,0.87 c 0.23,0.25 0.42,0.55 0.42,0.63 c 0,0.1 0.22,0.45 0.5,0.76 c 0.27,0.31 0.5,0.62 0.5,0.68 c 0,0.06 0.22,0.37 0.5,0.68 c 0.27,0.31 0.5,0.65 0.5,0.73 c 0,0.08 0.18,0.37 0.42,0.65 c 0.22,0.26 0.53,0.72 0.67,1 c 0.15,0.28 0.35,0.55 0.46,0.6 c 0.11,0.03 0.27,0.26 0.37,0.5 c 0.1,0.25 0.35,0.63 0.56,0.86 c 0.21,0.23 0.46,0.63 0.56,0.88 c 0.1,0.23 0.31,0.52 0.47,0.63 c 0.16,0.1 0.38,0.41 0.51,0.7 c 0.12,0.27 0.31,0.53 0.41,0.57 c 0.08,0.03 0.33,0.38 0.53,0.78 c 0.27,0.55 0.46,0.75 0.76,0.86 c 0.27,0.1 3.31,0.13 10.12,0.13 l 9.72,0 l 0.18,-0.27 c 0.17,-0.25 0.2,-4.95 0.2,-47.28 c 0,-42.33 -0.02,-47.03 -0.2,-47.28 l -0.18,-0.27 l -10.73,0 l -10.73,0 l -0.32,0.27 l -0.32,0.28 l 0.01,28.05 l 0,28.05 l -0.45,-0.07 c -0.47,-0.07 -1.05,-0.51 -1.05,-0.78 c 0,-0.08 -0.22,-0.42 -0.5,-0.73 c -0.27,-0.31 -0.5,-0.65 -0.5,-0.73 c 0,-0.08 -0.18,-0.37 -0.42,-0.65 c -0.22,-0.26 -0.53,-0.72 -0.67,-1 c -0.15,-0.28 -0.35,-0.55 -0.46,-0.6 c -0.11,-0.03 -0.27,-0.26 -0.37,-0.5 c -0.09,-0.25 -0.35,-0.62 -0.55,-0.85 c -0.18,-0.22 -0.47,-0.65 -0.61,-0.92 c -0.15,-0.28 -0.35,-0.55 -0.46,-0.6 c -0.11,-0.03 -0.27,-0.26 -0.37,-0.5 c -0.09,-0.23 -0.33,-0.58 -0.51,-0.78 c -0.18,-0.18 -0.43,-0.57 -0.56,-0.86 c -0.12,-0.27 -0.35,-0.61 -0.5,-0.75 c -0.13,-0.12 -0.37,-0.45 -0.5,-0.7 c -0.12,-0.25 -0.33,-0.53 -0.46,-0.62 c -0.13,-0.08 -0.38,-0.45 -0.56,-0.8 c -0.17,-0.33 -0.41,-0.7 -0.52,-0.8 c -0.11,-0.08 -0.28,-0.33 -0.4,-0.55 c -0.1,-0.21 -0.32,-0.53 -0.48,-0.71 c -0.27,-0.28 -0.71,-0.92 -1.38,-2.03 c -0.12,-0.2 -0.43,-0.61 -0.68,-0.91 c -0.26,-0.3 -0.47,-0.6 -0.47,-0.66 c 0,-0.06 -0.16,-0.3 -0.36,-0.52 c -0.18,-0.22 -0.48,-0.66 -0.63,-0.97 c -0.16,-0.31 -0.38,-0.63 -0.52,-0.72 c -0.12,-0.08 -0.33,-0.37 -0.46,-0.62 c -0.12,-0.25 -0.36,-0.57 -0.5,-0.7 c -0.15,-0.13 -0.37,-0.47 -0.5,-0.75 c -0.12,-0.28 -0.37,-0.67 -0.56,-0.86 c -0.17,-0.2 -0.41,-0.53 -0.5,-0.77 c -0.1,-0.22 -0.3,-0.47 -0.43,-0.56 c -0.15,-0.07 -0.35,-0.33 -0.45,-0.58 c -0.1,-0.23 -0.35,-0.63 -0.56,-0.87 c -0.21,-0.22 -0.46,-0.61 -0.56,-0.86 c -0.1,-0.23 -0.26,-0.46 -0.37,-0.5 c -0.11,-0.05 -0.31,-0.31 -0.46,-0.6 c -0.13,-0.27 -0.45,-0.73 -0.67,-1 c -0.23,-0.27 -0.42,-0.56 -0.42,-0.65 c 0,-0.08 -0.22,-0.42 -0.5,-0.73 c -0.27,-0.31 -0.5,-0.62 -0.5,-0.68 c 0,-0.06 -0.16,-0.3 -0.36,-0.52 c -0.18,-0.22 -0.48,-0.66 -0.63,-0.97 c -0.16,-0.31 -0.38,-0.63 -0.52,-0.72 c -0.12,-0.08 -0.33,-0.38 -0.47,-0.65 c -0.13,-0.26 -0.35,-0.56 -0.47,-0.65 c -0.13,-0.08 -0.36,-0.41 -0.52,-0.72 c -0.15,-0.31 -0.45,-0.75 -0.63,-0.97 c -0.2,-0.22 -0.36,-0.46 -0.36,-0.52 c 0,-0.06 -0.22,-0.37 -0.5,-0.68 c -0.27,-0.31 -0.5,-0.65 -0.5,-0.73 c 0,-0.08 -0.18,-0.37 -0.42,-0.65 c -0.22,-0.26 -0.53,-0.72 -0.67,-1 c -0.15,-0.28 -0.35,-0.55 -0.46,-0.6 c -0.11,-0.03 -0.27,-0.26 -0.37,-0.5 c -0.1,-0.25 -0.35,-0.62 -0.55,-0.85 c -0.18,-0.22 -0.47,-0.65 -0.61,-0.92 c -0.15,-0.28 -0.35,-0.55 -0.46,-0.6 c -0.11,-0.03 -0.27,-0.26 -0.37,-0.5 c -0.1,-0.23 -0.33,-0.58 -0.51,-0.78 c -0.18,-0.18 -0.43,-0.57 -0.56,-0.86 c -0.12,-0.27 -0.35,-0.61 -0.5,-0.75 c -0.13,-0.12 -0.37,-0.45 -0.51,-0.71 c -0.12,-0.26 -0.32,-0.51 -0.42,-0.55 c -0.1,-0.03 -0.33,-0.36 -0.51,-0.71 c -0.17,-0.35 -0.48,-0.82 -0.67,-1.05 c -0.2,-0.22 -0.36,-0.46 -0.36,-0.52 c 0,-0.06 -0.21,-0.36 -0.46,-0.66 c -0.26,-0.3 -0.57,-0.71 -0.7,-0.91 c -0.66,-1.08 -1.08,-1.7 -1.43,-2.11 c -0.22,-0.23 -0.4,-0.5 -0.4,-0.55 c 0,-0.06 -0.18,-0.33 -0.41,-0.6 c -0.22,-0.27 -0.5,-0.71 -0.62,-1 c -0.45,-0.96 0.25,-0.91 -11.88,-0.91 c -10.28,0 -10.8,0.01 -10.98,0.22 z"/>
  <!-- T -->
  <path d="M 655.62,591.96 c -0.5,0.17 -0.5,0.11 -0.5,9.61 l 0,9.16 l 0.3,0.35 l 0.3,0.35 l 13.45,0.03 l 13.45,0.02 l 0.18,0.3 c 0.17,0.26 0.18,4.22 0.18,37.48 l 0,37.21 l 0.25,0.25 c 0.25,0.25 0.33,0.25 11.12,0.22 c 9.63,-0.03 10.88,-0.06 11.06,-0.23 c 0.17,-0.17 0.18,-3.88 0.18,-37.21 c 0,-32.71 0.02,-37.07 0.18,-37.4 c 0.1,-0.2 0.26,-0.4 0.33,-0.46 c 0.08,-0.05 6.08,-0.12 13.33,-0.16 l 13.17,-0.06 l 0.26,-0.35 c 0.26,-0.35 0.26,-0.42 0.3,-9.31 c 0.01,-4.92 0,-9.08 -0.03,-9.23 c -0.03,-0.15 -0.15,-0.36 -0.26,-0.46 c -0.17,-0.18 -3.86,-0.2 -38.65,-0.18 c -21.15,0 -38.55,0.03 -38.65,0.07 z"/>
  <!-- H -->
  <path d="M 746.08,592.1 c -0.2,0.21 -0.21,3.68 -0.21,47.37 c 0,42.67 0.01,47.15 0.2,47.32 c 0.17,0.17 1.33,0.2 10.91,0.2 c 10.22,0 10.73,-0.01 10.92,-0.22 c 0.2,-0.21 0.21,-1.73 0.21,-19.45 l 0,-19.21 l 0.31,-0.3 l 0.3,-0.31 l 17.95,0 l 17.96,0 l 0.36,0.36 l 0.36,0.36 l 0,19.21 l 0,19.2 l 0.43,0.18 c 0.36,0.15 2.06,0.17 11.03,0.17 c 8.28,0 10.65,-0.03 10.81,-0.16 c 0.2,-0.13 0.21,-3.02 0.21,-47.4 c 0,-44.35 -0.01,-47.26 -0.21,-47.41 c -0.16,-0.11 -2.53,-0.15 -10.83,-0.15 c -10.4,0 -10.65,0.01 -11.05,0.25 l -0.4,0.25 l 0,18.08 c 0.01,16.26 -0.01,18.1 -0.18,18.27 c -0.17,0.17 -2.05,0.2 -18.3,0.23 c -11.67,0.01 -18.22,-0.01 -18.43,-0.09 l -0.32,-0.12 l 0,-18.16 c 0,-16.22 -0.02,-18.18 -0.2,-18.43 l -0.18,-0.27 l -10.72,0 c -10.22,0 -10.73,0.01 -10.92,0.22 z"/>
  <!-- R -->
  <path d="M 848.08,592.1 c -0.2,0.21 -0.21,3.02 -0.21,47.37 c 0,42.67 0.01,47.15 0.2,47.32 c 0.17,0.17 1.33,0.2 10.91,0.2 c 10.22,0 10.73,-0.01 10.92,-0.22 c 0.2,-0.21 0.21,-1.57 0.21,-17.03 c 0,-9.23 0.03,-16.92 0.07,-17.07 c 0.05,-0.15 0.23,-0.32 0.45,-0.4 c 0.26,-0.08 2.85,-0.13 7.71,-0.13 c 8.67,0 8.2,-0.06 8.62,1.28 c 0.12,0.43 0.37,1 0.55,1.25 c 0.17,0.25 0.37,0.75 0.46,1.11 c 0.08,0.36 0.31,0.9 0.51,1.2 c 0.18,0.3 0.41,0.83 0.48,1.18 c 0.07,0.36 0.27,0.86 0.46,1.11 c 0.17,0.26 0.42,0.85 0.55,1.31 c 0.12,0.45 0.35,0.96 0.5,1.11 c 0.15,0.15 0.37,0.7 0.51,1.2 c 0.13,0.5 0.35,1.02 0.47,1.16 c 0.12,0.13 0.32,0.61 0.45,1.06 c 0.12,0.45 0.35,1 0.51,1.22 c 0.17,0.22 0.4,0.77 0.52,1.21 c 0.12,0.45 0.37,1.02 0.55,1.28 c 0.18,0.25 0.38,0.76 0.46,1.11 c 0.08,0.36 0.28,0.86 0.46,1.12 c 0.17,0.26 0.41,0.82 0.53,1.25 c 0.12,0.43 0.36,1 0.53,1.26 c 0.18,0.25 0.38,0.76 0.46,1.11 c 0.08,0.36 0.28,0.86 0.46,1.12 c 0.17,0.26 0.41,0.82 0.53,1.25 c 0.12,0.43 0.36,1 0.53,1.26 c 0.17,0.25 0.38,0.73 0.46,1.08 c 0.07,0.33 0.3,0.87 0.5,1.18 c 0.2,0.31 0.42,0.86 0.5,1.22 c 0.08,0.35 0.28,0.85 0.46,1.11 c 0.17,0.26 0.41,0.82 0.53,1.25 c 0.12,0.43 0.36,1 0.53,1.26 c 0.16,0.25 0.33,0.61 0.38,0.8 c 0.17,0.77 -0.61,0.72 11.62,0.72 c 8.5,0 11.18,-0.03 11.3,-0.15 c 0.31,-0.31 0.15,-0.93 -0.41,-1.62 c -0.16,-0.18 -0.35,-0.63 -0.43,-1 c -0.08,-0.36 -0.3,-0.88 -0.5,-1.16 c -0.18,-0.27 -0.41,-0.8 -0.5,-1.16 c -0.08,-0.36 -0.27,-0.81 -0.43,-1 c -0.15,-0.18 -0.4,-0.71 -0.53,-1.17 c -0.13,-0.46 -0.38,-1.01 -0.56,-1.21 c -0.17,-0.21 -0.37,-0.67 -0.46,-1.03 c -0.08,-0.36 -0.31,-0.88 -0.51,-1.16 c -0.18,-0.27 -0.42,-0.81 -0.53,-1.18 c -0.1,-0.37 -0.32,-0.87 -0.5,-1.11 c -0.17,-0.22 -0.37,-0.72 -0.45,-1.08 c -0.07,-0.37 -0.28,-0.85 -0.46,-1.05 c -0.17,-0.21 -0.41,-0.72 -0.53,-1.13 c -0.13,-0.42 -0.37,-0.97 -0.55,-1.22 c -0.16,-0.25 -0.37,-0.7 -0.45,-1.01 c -0.07,-0.31 -0.3,-0.81 -0.5,-1.12 c -0.2,-0.31 -0.42,-0.81 -0.5,-1.12 c -0.07,-0.31 -0.28,-0.76 -0.45,-1.01 c -0.17,-0.25 -0.41,-0.8 -0.53,-1.21 c -0.13,-0.42 -0.36,-0.93 -0.51,-1.15 c -0.15,-0.21 -0.37,-0.72 -0.5,-1.12 c -0.12,-0.41 -0.33,-0.88 -0.48,-1.07 c -0.15,-0.18 -0.35,-0.65 -0.46,-1.03 c -0.11,-0.38 -0.33,-0.9 -0.51,-1.15 c -0.16,-0.25 -0.41,-0.81 -0.53,-1.23 c -0.12,-0.43 -0.36,-0.91 -0.51,-1.07 c -0.15,-0.15 -0.37,-0.65 -0.5,-1.11 c -0.12,-0.45 -0.33,-0.96 -0.47,-1.15 c -0.15,-0.17 -0.37,-0.68 -0.51,-1.12 c -0.13,-0.45 -0.38,-0.97 -0.56,-1.17 c -0.16,-0.2 -0.33,-0.57 -0.38,-0.83 c -0.03,-0.25 -0.23,-0.76 -0.45,-1.12 c -0.51,-0.95 -0.45,-1.26 0.36,-1.65 c 0.35,-0.17 0.77,-0.43 0.93,-0.58 c 0.16,-0.13 0.51,-0.35 0.78,-0.47 c 0.27,-0.11 0.61,-0.3 0.75,-0.42 c 0.13,-0.12 0.45,-0.32 0.68,-0.45 c 0.23,-0.11 0.62,-0.38 0.85,-0.61 c 0.22,-0.21 0.66,-0.61 0.97,-0.88 c 0.31,-0.27 0.77,-0.7 1.02,-0.95 c 0.25,-0.25 0.56,-0.5 0.67,-0.56 c 0.11,-0.06 0.48,-0.45 0.83,-0.86 c 0.78,-0.93 1.37,-1.6 2.01,-2.27 c 0.27,-0.28 0.5,-0.58 0.5,-0.67 c 0,-0.07 0.18,-0.4 0.42,-0.72 c 0.23,-0.32 0.47,-0.73 0.52,-0.93 c 0.03,-0.18 0.26,-0.6 0.48,-0.92 c 0.21,-0.32 0.47,-0.81 0.56,-1.08 c 0.08,-0.27 0.25,-0.61 0.37,-0.75 c 0.36,-0.42 0.5,-0.76 0.67,-1.78 c 0.1,-0.53 0.28,-1.2 0.42,-1.47 c 0.13,-0.27 0.32,-0.86 0.4,-1.31 c 0.08,-0.43 0.28,-1.45 0.45,-2.23 c 0.75,-3.61 0.85,-9.95 0.18,-12.12 c -0.3,-1.01 -0.36,-1.3 -0.5,-2.65 c -0.08,-0.72 -0.25,-1.38 -0.48,-1.93 c -0.21,-0.47 -0.43,-1.16 -0.51,-1.53 c -0.08,-0.37 -0.31,-0.93 -0.5,-1.25 c -0.2,-0.31 -0.45,-0.87 -0.56,-1.26 c -0.11,-0.38 -0.28,-0.78 -0.41,-0.87 c -0.11,-0.1 -0.32,-0.46 -0.48,-0.8 c -0.15,-0.35 -0.37,-0.71 -0.5,-0.81 c -0.11,-0.1 -0.32,-0.43 -0.46,-0.75 c -0.12,-0.31 -0.4,-0.73 -0.6,-0.93 c -0.2,-0.21 -0.6,-0.65 -0.88,-0.98 c -0.45,-0.51 -1.87,-1.95 -3.53,-3.56 c -0.2,-0.2 -0.6,-0.47 -0.87,-0.61 c -0.27,-0.13 -0.6,-0.36 -0.73,-0.5 c -0.12,-0.15 -0.38,-0.3 -0.58,-0.33 c -0.21,-0.05 -0.62,-0.3 -0.93,-0.57 c -0.31,-0.26 -0.66,-0.48 -0.78,-0.48 c -0.12,0 -0.48,-0.17 -0.8,-0.38 c -0.32,-0.21 -0.92,-0.48 -1.35,-0.61 c -0.42,-0.13 -0.97,-0.37 -1.22,-0.55 c -0.27,-0.2 -0.83,-0.38 -1.43,-0.51 c -0.53,-0.1 -1.1,-0.26 -1.25,-0.35 c -0.45,-0.28 -1.08,-0.46 -2.38,-0.66 c -0.68,-0.1 -1.55,-0.26 -1.91,-0.37 c -2.1,-0.6 -1.37,-0.57 -26.71,-0.63 c -23.2,-0.05 -23.76,-0.05 -23.97,0.18 z m 40.05,16.58 c 2.51,0.31 3.12,0.43 3.85,0.81 c 0.38,0.2 0.95,0.42 1.26,0.5 c 0.31,0.08 0.7,0.27 0.87,0.42 c 0.17,0.16 0.56,0.46 0.87,0.67 c 1.03,0.7 2.7,2.47 3.16,3.33 c 0.1,0.21 0.3,0.46 0.43,0.58 c 0.13,0.11 0.35,0.52 0.46,0.92 c 0.11,0.41 0.35,0.96 0.5,1.23 c 0.58,0.98 0.82,4.17 0.51,6.8 c -0.16,1.36 -0.27,1.85 -0.62,2.62 c -0.23,0.52 -0.46,1.08 -0.51,1.26 c -0.05,0.17 -0.23,0.51 -0.42,0.75 c -0.18,0.23 -0.42,0.57 -0.51,0.75 c -0.16,0.32 -0.35,0.53 -1.72,1.9 c -1.48,1.48 -1.57,1.57 -2.06,1.77 c -0.27,0.11 -0.65,0.33 -0.85,0.51 c -0.21,0.16 -0.61,0.36 -0.9,0.45 c -0.28,0.07 -0.91,0.3 -1.38,0.51 c -1.22,0.53 -2.43,0.58 -12.13,0.6 c -7.27,0 -8.28,-0.02 -8.53,-0.2 l -0.27,-0.18 l 0,-12.81 l 0,-12.81 l 0.31,-0.3 l 0.3,-0.31 l 7.97,0 c 6.18,0 8.3,0.03 9.42,0.18 z"/>
  <!-- O -->
  <path d="M 978,590.62 c -0.45,0.06 -2.26,0.2 -4.02,0.3 c -2.57,0.16 -3.46,0.26 -4.43,0.52 c -0.66,0.17 -1.83,0.4 -2.6,0.48 c -1.02,0.13 -1.55,0.27 -2.07,0.55 c -0.37,0.2 -1.02,0.42 -1.43,0.51 c -0.4,0.07 -1.05,0.3 -1.42,0.48 c -0.37,0.2 -0.96,0.42 -1.31,0.5 c -0.33,0.08 -0.87,0.31 -1.18,0.51 c -0.31,0.18 -0.78,0.41 -1.06,0.5 c -0.27,0.08 -0.75,0.31 -1.06,0.5 c -0.31,0.2 -0.8,0.41 -1.08,0.48 c -0.28,0.07 -0.75,0.33 -1.03,0.57 c -0.28,0.23 -0.61,0.43 -0.71,0.43 c -0.1,0 -0.35,0.17 -0.56,0.37 c -0.21,0.21 -0.65,0.52 -0.96,0.68 c -0.32,0.16 -0.66,0.38 -0.76,0.5 c -0.08,0.11 -0.33,0.28 -0.55,0.4 c -0.6,0.3 -1,0.65 -3.68,3.16 c -1.32,1.23 -2.53,2.55 -3.6,3.91 c -0.26,0.33 -0.63,0.77 -0.82,0.97 c -0.2,0.2 -0.5,0.63 -0.67,0.98 c -0.17,0.33 -0.36,0.62 -0.41,0.62 c -0.06,0 -0.25,0.3 -0.42,0.66 c -0.17,0.37 -0.41,0.75 -0.52,0.85 c -0.12,0.1 -0.35,0.48 -0.51,0.86 c -0.17,0.37 -0.47,0.86 -0.67,1.08 c -0.2,0.23 -0.36,0.5 -0.36,0.58 c 0,0.1 -0.2,0.46 -0.43,0.81 c -0.23,0.35 -0.5,0.91 -0.57,1.26 c -0.07,0.33 -0.27,0.82 -0.45,1.08 c -0.17,0.26 -0.41,0.82 -0.53,1.25 c -0.12,0.43 -0.36,1 -0.53,1.26 c -0.2,0.28 -0.37,0.78 -0.47,1.33 c -0.07,0.47 -0.3,1.23 -0.48,1.68 c -0.2,0.45 -0.41,1.22 -0.48,1.72 c -0.07,0.48 -0.27,1.26 -0.45,1.71 c -0.3,0.8 -0.46,1.81 -0.62,3.75 c -0.05,0.55 -0.22,1.5 -0.38,2.12 c -0.26,0.98 -0.32,1.6 -0.45,4.87 c -0.2,5.02 0,11.3 0.38,12.6 c 0.13,0.47 0.31,1.42 0.38,2.12 c 0.26,2.42 0.37,3.1 0.61,3.62 c 0.28,0.63 0.46,1.3 0.56,2.18 c 0.05,0.36 0.25,1.06 0.43,1.56 c 0.2,0.48 0.42,1.31 0.51,1.8 c 0.08,0.57 0.26,1.08 0.46,1.37 c 0.17,0.26 0.41,0.82 0.53,1.25 c 0.12,0.43 0.36,1 0.53,1.26 c 0.17,0.25 0.38,0.73 0.46,1.06 c 0.06,0.32 0.32,0.88 0.56,1.23 c 0.23,0.33 0.43,0.7 0.43,0.78 c 0,0.08 0.18,0.4 0.42,0.67 c 0.23,0.28 0.5,0.72 0.58,0.98 c 0.07,0.25 0.32,0.66 0.55,0.91 c 0.22,0.25 0.45,0.62 0.48,0.83 c 0.05,0.2 0.28,0.6 0.52,0.87 c 0.22,0.27 0.42,0.55 0.42,0.61 c 0,0.06 0.25,0.38 0.56,0.73 c 0.72,0.77 1.15,1.27 2.05,2.36 c 0.4,0.47 1.22,1.32 1.83,1.87 c 0.6,0.55 1.47,1.36 1.93,1.81 c 1.1,1.06 1.83,1.66 2.31,1.91 c 0.21,0.11 0.42,0.28 0.46,0.38 c 0.03,0.11 0.41,0.36 0.81,0.56 c 0.41,0.21 0.77,0.46 0.81,0.56 c 0.03,0.1 0.35,0.32 0.68,0.5 c 0.33,0.17 0.65,0.4 0.68,0.5 c 0.03,0.1 0.4,0.28 0.8,0.4 c 0.4,0.11 0.91,0.36 1.16,0.56 c 0.23,0.18 0.7,0.41 1.03,0.5 c 0.32,0.07 0.78,0.3 1.03,0.48 c 0.23,0.2 0.72,0.42 1.08,0.5 c 0.36,0.07 0.96,0.28 1.33,0.48 c 0.37,0.2 1.12,0.43 1.66,0.55 c 0.52,0.11 1.12,0.31 1.31,0.43 c 0.42,0.31 1.08,0.47 2.27,0.58 c 0.51,0.05 1.58,0.26 2.37,0.46 c 1.36,0.35 1.63,0.37 5.58,0.5 c 2.97,0.1 5.31,0.1 8.25,0.01 c 3.81,-0.12 4.18,-0.16 5.35,-0.47 c 0.68,-0.17 1.9,-0.41 2.68,-0.51 c 1.11,-0.13 1.6,-0.25 2.13,-0.53 c 0.38,-0.2 1.06,-0.43 1.5,-0.51 c 0.43,-0.07 1.11,-0.3 1.48,-0.48 c 0.37,-0.18 0.97,-0.41 1.31,-0.5 c 0.35,-0.08 0.85,-0.31 1.12,-0.51 c 0.27,-0.18 0.76,-0.41 1.06,-0.5 c 0.31,-0.07 0.76,-0.31 1.01,-0.5 c 0.25,-0.2 0.71,-0.42 1.03,-0.51 c 0.31,-0.07 0.7,-0.26 0.85,-0.42 c 0.16,-0.15 0.52,-0.4 0.82,-0.55 c 0.3,-0.15 0.57,-0.36 0.61,-0.46 c 0.03,-0.1 0.33,-0.32 0.65,-0.48 c 0.32,-0.16 0.66,-0.38 0.76,-0.5 c 0.08,-0.11 0.42,-0.35 0.73,-0.53 c 0.31,-0.17 0.71,-0.46 0.88,-0.61 c 0.17,-0.16 0.81,-0.76 1.41,-1.32 c 0.61,-0.56 1.65,-1.56 2.31,-2.22 c 1.25,-1.25 1.51,-1.53 3.51,-3.86 c 0.26,-0.31 0.6,-0.78 0.73,-1.06 c 0.13,-0.27 0.36,-0.6 0.5,-0.73 c 0.15,-0.12 0.3,-0.38 0.33,-0.58 c 0.05,-0.2 0.27,-0.58 0.5,-0.86 c 0.22,-0.27 0.48,-0.71 0.56,-0.97 c 0.08,-0.25 0.31,-0.63 0.5,-0.83 c 0.18,-0.21 0.41,-0.58 0.48,-0.83 c 0.08,-0.25 0.3,-0.67 0.47,-0.93 c 0.17,-0.26 0.41,-0.82 0.53,-1.25 c 0.12,-0.43 0.36,-1 0.53,-1.26 c 0.17,-0.25 0.35,-0.66 0.4,-0.9 c 0.03,-0.23 0.27,-0.83 0.51,-1.31 c 0.27,-0.58 0.46,-1.22 0.56,-1.87 c 0.07,-0.55 0.28,-1.36 0.48,-1.81 c 0.2,-0.45 0.41,-1.23 0.48,-1.76 c 0.07,-0.53 0.23,-1.26 0.37,-1.62 c 0.36,-0.97 0.48,-1.61 0.63,-3.38 c 0.07,-0.86 0.21,-1.98 0.31,-2.5 c 0.31,-1.66 0.48,-4.48 0.48,-7.85 c 0,-3.3 -0.08,-4.55 -0.55,-8.25 c -0.12,-1.06 -0.3,-2.6 -0.37,-3.41 c -0.08,-1.02 -0.22,-1.71 -0.43,-2.22 c -0.16,-0.4 -0.36,-1.17 -0.43,-1.71 c -0.07,-0.52 -0.27,-1.25 -0.43,-1.58 c -0.32,-0.7 -0.5,-1.33 -0.62,-2.25 c -0.05,-0.35 -0.25,-0.91 -0.43,-1.25 c -0.2,-0.35 -0.42,-0.91 -0.5,-1.25 c -0.07,-0.35 -0.28,-0.83 -0.46,-1.08 c -0.17,-0.26 -0.42,-0.85 -0.55,-1.31 c -0.12,-0.45 -0.33,-0.95 -0.47,-1.08 c -0.13,-0.15 -0.36,-0.57 -0.51,-0.97 c -0.13,-0.38 -0.35,-0.77 -0.46,-0.87 c -0.11,-0.08 -0.31,-0.41 -0.45,-0.71 c -0.12,-0.3 -0.42,-0.78 -0.65,-1.08 c -0.22,-0.3 -0.45,-0.7 -0.5,-0.9 c -0.03,-0.2 -0.21,-0.5 -0.38,-0.66 c -0.17,-0.16 -0.4,-0.5 -0.5,-0.73 c -0.1,-0.23 -0.35,-0.61 -0.53,-0.81 c -0.2,-0.21 -0.45,-0.56 -0.56,-0.77 c -0.11,-0.22 -0.33,-0.5 -0.5,-0.6 c -0.15,-0.1 -0.35,-0.33 -0.43,-0.51 c -0.16,-0.37 -0.36,-0.58 -2.17,-2.38 c -2.82,-2.82 -3.98,-3.86 -4.78,-4.26 c -0.27,-0.13 -0.57,-0.35 -0.67,-0.46 c -0.09,-0.11 -0.4,-0.32 -0.67,-0.46 c -0.27,-0.13 -0.6,-0.38 -0.72,-0.55 c -0.12,-0.15 -0.36,-0.32 -0.51,-0.36 c -0.15,-0.05 -0.48,-0.26 -0.76,-0.46 c -0.26,-0.21 -0.73,-0.46 -1.05,-0.56 c -0.32,-0.08 -0.8,-0.31 -1.07,-0.48 c -0.26,-0.17 -0.78,-0.42 -1.15,-0.55 c -0.37,-0.13 -0.86,-0.37 -1.08,-0.55 c -0.22,-0.17 -0.72,-0.38 -1.08,-0.46 c -0.37,-0.07 -1,-0.31 -1.37,-0.5 c -0.37,-0.2 -1,-0.41 -1.37,-0.48 c -0.37,-0.07 -1.01,-0.3 -1.41,-0.5 c -0.56,-0.3 -1.05,-0.42 -2.18,-0.57 c -0.8,-0.1 -1.81,-0.3 -2.25,-0.42 c -0.93,-0.28 -2.26,-0.45 -4.52,-0.56 c -1.46,-0.06 -2.71,-0.16 -4.81,-0.36 c -0.27,-0.02 -0.86,0 -1.31,0.05 z m 5.18,18.51 c 0.48,0.07 1.16,0.26 1.5,0.42 c 0.35,0.15 0.93,0.35 1.32,0.42 c 0.38,0.08 0.98,0.33 1.35,0.56 c 0.36,0.23 0.83,0.46 1.06,0.5 c 0.22,0.05 0.52,0.2 0.65,0.33 c 0.13,0.15 0.46,0.37 0.73,0.51 c 0.27,0.13 0.73,0.47 1.02,0.73 c 0.3,0.27 0.57,0.48 0.62,0.48 c 0.06,0 0.43,0.4 0.85,0.88 c 0.41,0.48 0.93,1.1 1.15,1.36 c 0.22,0.25 0.48,0.66 0.58,0.88 c 0.1,0.23 0.32,0.56 0.5,0.72 c 0.17,0.16 0.38,0.5 0.46,0.75 c 0.07,0.25 0.3,0.65 0.48,0.9 c 0.2,0.25 0.43,0.75 0.53,1.12 c 0.1,0.37 0.31,0.88 0.48,1.13 c 0.2,0.28 0.38,0.81 0.47,1.31 c 0.07,0.47 0.3,1.18 0.5,1.6 c 0.26,0.55 0.4,1.08 0.51,2 c 0.07,0.68 0.3,1.75 0.5,2.35 c 0.38,1.17 0.36,0.95 0.75,7.77 c 0.15,2.57 0.08,6.52 -0.13,10.43 c -0.18,3.13 -0.33,4.33 -0.62,5.16 c -0.15,0.4 -0.35,1.3 -0.45,2 c -0.12,0.82 -0.3,1.48 -0.5,1.88 c -0.25,0.48 -0.66,1.91 -0.67,2.35 c 0,0.03 -0.15,0.25 -0.32,0.46 c -0.17,0.21 -0.42,0.72 -0.55,1.15 c -0.12,0.41 -0.36,0.93 -0.53,1.15 c -0.16,0.22 -0.37,0.61 -0.45,0.87 c -0.08,0.26 -0.27,0.53 -0.41,0.62 c -0.13,0.08 -0.36,0.36 -0.5,0.62 c -0.12,0.27 -0.45,0.72 -0.71,1 c -0.26,0.28 -0.52,0.61 -0.58,0.72 c -0.15,0.26 -2.77,2.61 -2.91,2.61 c -0.06,0 -0.36,0.18 -0.66,0.42 c -0.31,0.22 -0.85,0.48 -1.2,0.57 c -0.36,0.07 -0.77,0.25 -0.92,0.36 c -0.53,0.42 -0.87,0.53 -2.08,0.71 c -0.66,0.1 -1.53,0.28 -1.95,0.42 c -2.31,0.73 -5.45,0.76 -7.91,0.05 c -0.56,-0.16 -1.56,-0.37 -2.2,-0.47 c -1.17,-0.17 -1.51,-0.3 -2.05,-0.71 c -0.15,-0.11 -0.57,-0.28 -0.93,-0.36 c -0.35,-0.08 -0.76,-0.25 -0.9,-0.37 c -0.13,-0.11 -0.47,-0.33 -0.75,-0.5 c -1.23,-0.72 -3.22,-2.68 -4.23,-4.18 c -0.23,-0.35 -0.52,-0.71 -0.63,-0.81 c -0.12,-0.1 -0.32,-0.43 -0.46,-0.75 c -0.13,-0.31 -0.35,-0.68 -0.48,-0.82 c -0.13,-0.15 -0.35,-0.61 -0.48,-1.03 c -0.12,-0.41 -0.36,-0.92 -0.53,-1.13 c -0.18,-0.21 -0.37,-0.67 -0.46,-1.08 c -0.07,-0.4 -0.31,-1.06 -0.5,-1.47 c -0.21,-0.45 -0.43,-1.23 -0.55,-1.93 c -0.11,-0.65 -0.33,-1.62 -0.51,-2.16 c -0.25,-0.77 -0.33,-1.42 -0.43,-3.1 c -0.07,-1.16 -0.18,-2.68 -0.25,-3.4 c -0.21,-2.17 -0.28,-6.78 -0.13,-8.83 c 0.33,-4.86 0.4,-5.75 0.51,-6.75 c 0.06,-0.58 0.21,-1.4 0.35,-1.81 c 0.13,-0.41 0.33,-1.31 0.45,-2 c 0.12,-0.73 0.36,-1.57 0.57,-2.03 c 0.2,-0.42 0.42,-1.13 0.5,-1.56 c 0.07,-0.42 0.3,-1.02 0.5,-1.33 c 0.18,-0.31 0.41,-0.86 0.5,-1.22 c 0.08,-0.36 0.28,-0.82 0.45,-1.01 c 0.16,-0.2 0.4,-0.6 0.52,-0.9 c 0.13,-0.31 0.33,-0.63 0.45,-0.73 c 0.12,-0.08 0.35,-0.42 0.51,-0.73 c 0.15,-0.31 0.4,-0.68 0.55,-0.81 c 0.15,-0.13 0.37,-0.42 0.51,-0.63 c 0.46,-0.75 2.38,-2.5 3.18,-2.91 c 0.27,-0.13 0.6,-0.36 0.73,-0.51 c 0.12,-0.13 0.42,-0.28 0.65,-0.33 c 0.22,-0.03 0.7,-0.26 1.06,-0.5 c 0.36,-0.22 0.96,-0.47 1.35,-0.55 c 0.38,-0.08 0.91,-0.25 1.17,-0.38 c 0.66,-0.33 1.43,-0.48 3.02,-0.61 c 1.65,-0.12 5.77,-0.05 7,0.13 z"/>
  <!-- P -->
  <path d="M 1040.08,592.1 c -0.2,0.21 -0.21,3.02 -0.21,47.37 c 0,42.67 0.01,47.15 0.2,47.32 c 0.17,0.17 1.33,0.2 10.91,0.2 c 8.43,0 10.76,-0.03 10.92,-0.16 c 0.21,-0.13 0.22,-1.13 0.21,-16.28 l 0,-16.13 l 0.26,-0.23 c 0.25,-0.22 0.61,-0.23 9.1,-0.31 c 7.46,-0.06 8.96,-0.1 9.73,-0.27 c 1.35,-0.3 2.57,-0.43 5.15,-0.58 c 2.1,-0.12 2.38,-0.17 3.12,-0.5 c 0.45,-0.18 1.23,-0.41 1.75,-0.48 c 0.51,-0.08 1.27,-0.31 1.68,-0.51 c 0.41,-0.2 1.1,-0.43 1.53,-0.53 c 0.42,-0.1 0.98,-0.32 1.25,-0.5 c 0.25,-0.16 0.76,-0.37 1.12,-0.46 c 0.41,-0.1 0.81,-0.28 1.02,-0.5 c 0.18,-0.17 0.58,-0.4 0.9,-0.48 c 0.31,-0.08 0.72,-0.3 0.92,-0.47 c 0.2,-0.17 0.58,-0.41 0.86,-0.53 c 0.27,-0.11 0.58,-0.31 0.67,-0.42 c 0.1,-0.12 0.41,-0.33 0.68,-0.47 c 0.43,-0.22 0.93,-0.6 1.82,-1.4 c 0.1,-0.08 0.27,-0.27 0.38,-0.4 c 0.12,-0.12 0.35,-0.36 0.5,-0.5 c 0.28,-0.25 0.63,-0.6 1.08,-1.08 c 0.11,-0.12 0.4,-0.42 0.63,-0.67 c 0.38,-0.4 0.81,-0.98 1.47,-2.08 c 0.12,-0.2 0.4,-0.57 0.62,-0.82 c 0.21,-0.25 0.43,-0.6 0.48,-0.8 c 0.03,-0.18 0.26,-0.6 0.48,-0.92 c 0.21,-0.32 0.48,-0.87 0.61,-1.22 c 0.11,-0.35 0.33,-0.81 0.5,-1.03 c 0.17,-0.23 0.36,-0.73 0.43,-1.21 c 0.08,-0.45 0.31,-1.13 0.51,-1.52 c 0.27,-0.53 0.42,-1.06 0.56,-2.11 c 0.11,-0.76 0.31,-1.72 0.45,-2.12 c 0.37,-1.07 0.56,-4.87 0.38,-8.18 c -0.11,-2.18 -0.17,-2.66 -0.45,-3.41 c -0.16,-0.48 -0.36,-1.43 -0.43,-2.12 c -0.11,-0.95 -0.22,-1.42 -0.51,-2 c -0.2,-0.41 -0.43,-1.06 -0.51,-1.43 c -0.07,-0.37 -0.32,-1.02 -0.55,-1.43 c -0.22,-0.41 -0.43,-0.9 -0.48,-1.08 c -0.03,-0.18 -0.23,-0.52 -0.43,-0.75 c -0.18,-0.22 -0.42,-0.62 -0.5,-0.87 c -0.08,-0.26 -0.33,-0.7 -0.55,-0.96 c -0.22,-0.27 -0.55,-0.73 -0.75,-1.03 c -0.5,-0.78 -0.91,-1.35 -1.37,-1.87 c -0.57,-0.66 -2.7,-2.8 -3.48,-3.51 c -0.36,-0.32 -0.83,-0.76 -1.05,-0.96 c -0.22,-0.2 -0.61,-0.46 -0.87,-0.6 c -0.27,-0.13 -0.62,-0.4 -0.78,-0.57 c -0.16,-0.17 -0.45,-0.35 -0.63,-0.38 c -0.18,-0.03 -0.47,-0.21 -0.62,-0.37 c -0.16,-0.16 -0.63,-0.42 -1.06,-0.56 c -0.42,-0.13 -0.9,-0.38 -1.06,-0.56 c -0.15,-0.16 -0.55,-0.36 -0.88,-0.43 c -0.33,-0.08 -0.81,-0.31 -1.05,-0.5 c -0.26,-0.21 -0.73,-0.42 -1.12,-0.5 c -0.36,-0.07 -0.91,-0.3 -1.21,-0.48 c -0.28,-0.2 -0.85,-0.42 -1.22,-0.5 c -0.37,-0.07 -1.16,-0.3 -1.75,-0.5 c -0.61,-0.21 -1.72,-0.45 -2.62,-0.56 c -0.86,-0.11 -1.83,-0.28 -2.18,-0.4 c -1.93,-0.58 -1.53,-0.57 -23.62,-0.63 c -20.25,-0.05 -20.76,-0.05 -20.97,0.18 z m 40.26,16.9 c 1.08,0.08 1.57,0.18 2.12,0.43 c 0.38,0.18 1.05,0.43 1.47,0.57 c 0.41,0.12 0.88,0.37 1.03,0.53 c 0.16,0.17 0.46,0.35 0.66,0.38 c 0.2,0.05 0.61,0.3 0.92,0.57 c 0.31,0.26 0.63,0.48 0.71,0.48 c 0.13,0 0.58,0.42 2.13,2 c 0.23,0.23 0.51,0.61 0.61,0.81 c 0.09,0.21 0.31,0.48 0.45,0.61 c 0.15,0.13 0.35,0.56 0.46,0.93 c 0.09,0.38 0.36,1.07 0.56,1.53 c 0.33,0.73 0.38,1.05 0.5,2.76 c 0.18,2.76 0.01,4.88 -0.5,6.06 c -0.21,0.48 -0.38,0.92 -0.38,0.98 c 0,0.36 -0.31,1.1 -0.61,1.45 c -0.18,0.21 -0.41,0.6 -0.51,0.83 c -0.08,0.23 -0.36,0.65 -0.58,0.91 c -0.22,0.25 -0.41,0.52 -0.41,0.58 c 0,0.13 -1.11,1.26 -2.01,2.03 c -1.16,1 -1.56,1.3 -1.96,1.46 c -0.22,0.08 -0.61,0.31 -0.85,0.51 c -0.25,0.2 -0.66,0.38 -0.91,0.42 c -0.25,0.03 -0.95,0.2 -1.57,0.37 c -0.61,0.16 -1.6,0.36 -2.18,0.43 c -1.21,0.15 -16.85,0.17 -17.08,0.02 c -0.4,-0.25 -0.41,-0.85 -0.41,-14.11 c 0,-12.22 0.01,-13.35 0.21,-13.56 c 0.18,-0.21 0.61,-0.22 8.46,-0.22 c 4.55,0 8.9,0.06 9.67,0.12 z"/>
  <!-- I -->
  <path d="M 1127.08,592.1 c -0.2,0.21 -0.21,3.68 -0.21,47.37 c 0,42.67 0.01,47.15 0.2,47.32 c 0.17,0.17 1.33,0.2 10.91,0.2 c 10.22,0 10.73,-0.01 10.92,-0.22 c 0.2,-0.21 0.21,-3.67 0.21,-47.28 c 0,-42.38 -0.02,-47.08 -0.2,-47.33 l -0.18,-0.27 l -10.72,0 c -10.22,0 -10.73,0.01 -10.92,0.22 z"/>
  <!-- S -->
  <path d="M 1204.56,590.63 c -0.75,0.06 -2.61,0.2 -4.12,0.31 c -2.15,0.15 -3.05,0.27 -4.13,0.56 c -0.76,0.18 -1.91,0.41 -2.55,0.48 c -1.43,0.16 -1.67,0.21 -2.31,0.53 c -0.27,0.13 -0.9,0.35 -1.38,0.47 c -0.48,0.12 -1.08,0.36 -1.33,0.52 c -0.23,0.16 -0.78,0.36 -1.2,0.45 c -0.45,0.08 -0.9,0.27 -1.11,0.45 c -0.2,0.16 -0.73,0.43 -1.2,0.61 c -0.46,0.16 -0.96,0.41 -1.11,0.55 c -0.15,0.13 -0.53,0.32 -0.86,0.4 c -0.32,0.08 -0.72,0.28 -0.88,0.45 c -0.16,0.16 -0.53,0.4 -0.85,0.52 c -0.3,0.13 -0.65,0.36 -0.77,0.5 c -0.12,0.13 -0.53,0.37 -0.9,0.52 c -0.37,0.15 -0.76,0.41 -0.87,0.57 c -0.09,0.16 -0.27,0.3 -0.38,0.3 c -0.09,0 -0.42,0.22 -0.71,0.48 c -0.28,0.27 -0.91,0.85 -1.4,1.27 c -0.47,0.41 -1.07,1 -1.31,1.28 c -0.23,0.27 -0.8,0.87 -1.23,1.32 c -0.42,0.45 -0.92,1.02 -1.08,1.27 c -0.16,0.26 -0.35,0.47 -0.4,0.47 c -0.05,0 -0.22,0.26 -0.37,0.57 c -0.16,0.31 -0.45,0.78 -0.63,1.03 c -0.2,0.25 -0.4,0.58 -0.45,0.76 c -0.05,0.17 -0.25,0.48 -0.45,0.71 c -0.21,0.25 -0.4,0.66 -0.48,1.12 c -0.08,0.4 -0.31,0.98 -0.51,1.3 c -0.25,0.38 -0.42,0.91 -0.55,1.61 c -0.09,0.56 -0.32,1.45 -0.51,1.97 c -0.3,0.86 -0.33,1.23 -0.43,3.52 c -0.15,3.45 0.03,7.6 0.38,8.87 c 0.13,0.51 0.38,1.57 0.56,2.35 c 0.16,0.78 0.41,1.57 0.56,1.76 c 0.13,0.2 0.36,0.71 0.48,1.13 c 0.13,0.42 0.33,0.87 0.43,0.98 c 0.11,0.12 0.36,0.55 0.56,0.96 c 0.2,0.41 0.45,0.82 0.57,0.92 c 0.11,0.08 0.31,0.38 0.45,0.65 c 0.13,0.26 0.36,0.55 0.5,0.63 c 0.13,0.07 0.36,0.36 0.5,0.62 c 0.13,0.26 0.33,0.51 0.43,0.55 c 0.09,0.03 0.3,0.3 0.45,0.58 c 0.31,0.6 1.72,2 2.37,2.33 c 0.25,0.12 0.53,0.33 0.62,0.46 c 0.08,0.12 0.4,0.38 0.7,0.57 c 0.28,0.17 0.52,0.37 0.52,0.43 c 0,0.06 0.3,0.28 0.66,0.48 c 0.36,0.2 0.72,0.46 0.82,0.56 c 0.08,0.11 0.53,0.35 1.01,0.52 c 0.47,0.17 0.92,0.41 1,0.51 c 0.08,0.08 0.53,0.28 1,0.42 c 0.46,0.13 0.93,0.36 1.06,0.5 c 0.12,0.13 0.55,0.35 0.92,0.45 c 0.38,0.11 0.92,0.36 1.21,0.55 c 0.33,0.23 0.8,0.41 1.37,0.51 c 0.47,0.07 1.26,0.3 1.73,0.5 c 0.48,0.18 1.33,0.41 1.91,0.48 c 0.57,0.07 1.45,0.3 1.93,0.5 c 0.65,0.25 1.3,0.4 2.27,0.5 c 0.76,0.07 1.68,0.22 2.06,0.32 c 0.37,0.11 0.95,0.27 1.26,0.36 c 0.31,0.08 1.21,0.22 2,0.31 c 0.78,0.08 1.85,0.28 2.36,0.45 c 0.96,0.3 1.9,0.46 3.43,0.61 c 0.48,0.05 1.3,0.21 1.81,0.37 c 1.23,0.37 1.37,0.41 2.71,0.56 c 0.71,0.07 1.48,0.26 2.06,0.48 c 0.5,0.2 1.36,0.42 1.9,0.5 c 0.73,0.11 1.13,0.23 1.56,0.52 c 0.31,0.2 0.81,0.43 1.1,0.5 c 0.28,0.07 0.63,0.27 0.8,0.43 c 0.15,0.16 0.56,0.38 0.91,0.5 c 0.35,0.11 0.81,0.37 1.01,0.57 c 0.21,0.2 0.72,0.68 1.13,1.07 c 0.42,0.38 0.86,0.91 0.97,1.15 c 0.11,0.23 0.31,0.61 0.46,0.83 c 0.6,0.95 0.55,5.33 -0.07,6.28 c -0.16,0.23 -0.43,0.76 -0.62,1.15 c -0.17,0.4 -0.38,0.72 -0.45,0.72 c -0.06,0 -0.22,0.22 -0.36,0.5 c -0.13,0.27 -0.47,0.63 -0.75,0.81 c -0.27,0.17 -0.5,0.36 -0.5,0.42 c 0,0.06 -0.3,0.28 -0.65,0.5 c -0.36,0.22 -0.85,0.53 -1.08,0.7 c -0.23,0.17 -0.55,0.31 -0.71,0.31 c -0.15,0 -0.65,0.2 -1.1,0.43 c -0.62,0.33 -1.12,0.48 -2.07,0.62 c -0.67,0.1 -1.53,0.3 -1.9,0.45 c -1.67,0.66 -7.91,0.57 -10.3,-0.13 c -0.41,-0.12 -1.31,-0.3 -2,-0.37 c -0.88,-0.1 -1.5,-0.26 -2.17,-0.55 c -0.51,-0.22 -1.13,-0.45 -1.38,-0.5 c -0.23,-0.03 -0.63,-0.22 -0.87,-0.38 c -0.22,-0.17 -0.63,-0.38 -0.88,-0.46 c -0.26,-0.07 -0.63,-0.32 -0.85,-0.56 c -0.21,-0.22 -0.43,-0.41 -0.5,-0.41 c -0.07,0 -0.33,-0.18 -0.58,-0.41 c -0.26,-0.23 -0.67,-0.56 -0.92,-0.72 c -0.42,-0.27 -1.55,-1.65 -1.87,-2.27 c -0.08,-0.15 -0.3,-0.45 -0.48,-0.66 c -0.22,-0.26 -0.41,-0.7 -0.55,-1.3 c -0.11,-0.48 -0.3,-1.05 -0.43,-1.22 c -0.12,-0.18 -0.27,-0.47 -0.32,-0.65 c -0.05,-0.17 -0.16,-0.43 -0.26,-0.6 l -0.17,-0.27 l -11.1,0 c -9.12,0 -11.13,0.02 -11.33,0.16 c -0.2,0.15 -0.21,0.28 -0.13,1 c 0.03,0.46 0.21,1.36 0.37,1.98 c 0.16,0.63 0.36,1.58 0.45,2.1 c 0.07,0.51 0.3,1.25 0.48,1.62 c 0.2,0.37 0.42,0.98 0.51,1.35 c 0.07,0.36 0.28,0.86 0.46,1.11 c 0.16,0.25 0.41,0.73 0.55,1.1 c 0.13,0.36 0.35,0.75 0.48,0.87 c 0.13,0.12 0.33,0.47 0.45,0.8 c 0.12,0.31 0.38,0.76 0.6,0.97 c 0.95,1 1.87,2.1 2.95,3.48 c 0.9,1.15 1.77,1.97 2.66,2.48 c 0.33,0.18 0.63,0.42 0.67,0.52 c 0.03,0.1 0.28,0.28 0.55,0.41 c 0.26,0.13 0.53,0.36 0.61,0.5 c 0.07,0.13 0.31,0.33 0.53,0.45 c 0.22,0.11 0.57,0.36 0.77,0.55 c 0.21,0.18 0.57,0.41 0.81,0.5 c 0.23,0.1 0.61,0.32 0.83,0.51 c 0.21,0.18 0.7,0.42 1.06,0.53 c 0.37,0.1 0.8,0.32 0.96,0.5 c 0.15,0.16 0.52,0.36 0.81,0.43 c 0.28,0.07 0.73,0.3 0.98,0.5 c 0.26,0.2 0.76,0.43 1.12,0.51 c 0.35,0.08 0.93,0.31 1.27,0.5 c 0.35,0.18 0.96,0.41 1.37,0.5 c 0.41,0.07 0.98,0.28 1.27,0.45 c 0.28,0.16 0.9,0.38 1.36,0.5 c 0.46,0.1 1.16,0.32 1.53,0.48 c 0.67,0.27 1.31,0.38 3.83,0.68 c 0.62,0.06 1.47,0.23 1.87,0.38 c 1,0.35 2.86,0.47 8.86,0.56 c 5.53,0.1 8.43,-0.03 10.06,-0.47 c 1.66,-0.45 2.17,-0.56 3.1,-0.71 c 0.5,-0.07 1.13,-0.25 1.4,-0.38 c 0.27,-0.13 1.03,-0.36 1.68,-0.5 c 0.66,-0.12 1.38,-0.35 1.62,-0.5 c 0.22,-0.13 0.83,-0.35 1.33,-0.45 c 0.56,-0.11 1.1,-0.32 1.41,-0.53 c 0.27,-0.2 0.81,-0.45 1.2,-0.55 c 0.37,-0.11 0.8,-0.31 0.91,-0.45 c 0.12,-0.13 0.51,-0.35 0.87,-0.46 c 0.35,-0.11 0.81,-0.36 1.01,-0.55 c 0.21,-0.18 0.61,-0.46 0.91,-0.61 c 0.28,-0.15 0.52,-0.31 0.52,-0.37 c 0,-0.06 0.26,-0.23 0.6,-0.4 c 0.32,-0.15 0.81,-0.46 1.08,-0.68 c 0.88,-0.73 1.6,-1.35 1.98,-1.73 c 0.21,-0.21 0.61,-0.52 0.88,-0.71 c 0.8,-0.55 3.68,-3.75 4.1,-4.55 c 0.11,-0.21 0.28,-0.46 0.41,-0.56 c 0.11,-0.1 0.37,-0.52 0.56,-0.96 c 0.2,-0.42 0.41,-0.77 0.47,-0.77 c 0.17,0 0.46,-0.57 0.56,-1.12 c 0.03,-0.23 0.23,-0.67 0.43,-0.97 c 0.2,-0.28 0.42,-0.81 0.5,-1.16 c 0.07,-0.35 0.28,-0.93 0.46,-1.31 c 0.31,-0.66 0.57,-2.06 1.1,-5.88 c 0.26,-1.8 0.25,-2.35 -0.03,-4.26 c -0.13,-0.87 -0.31,-2.35 -0.38,-3.27 c -0.13,-1.81 -0.23,-2.21 -0.68,-3.03 c -0.16,-0.28 -0.36,-0.86 -0.43,-1.27 c -0.08,-0.41 -0.31,-1.03 -0.5,-1.37 c -0.18,-0.35 -0.41,-0.95 -0.5,-1.36 c -0.09,-0.48 -0.26,-0.85 -0.5,-1.1 c -0.2,-0.21 -0.42,-0.57 -0.51,-0.83 c -0.07,-0.25 -0.33,-0.66 -0.56,-0.92 c -0.23,-0.25 -0.42,-0.52 -0.42,-0.58 c 0,-0.07 -0.21,-0.36 -0.46,-0.62 c -0.26,-0.27 -0.7,-0.76 -0.97,-1.07 c -0.67,-0.78 -1.77,-1.88 -2.47,-2.48 c -0.32,-0.27 -0.81,-0.71 -1.08,-0.97 c -0.26,-0.25 -0.55,-0.46 -0.61,-0.46 c -0.07,0 -0.32,-0.17 -0.56,-0.37 c -0.22,-0.21 -0.67,-0.48 -1,-0.62 c -0.31,-0.15 -0.63,-0.36 -0.73,-0.5 c -0.08,-0.13 -0.38,-0.33 -0.65,-0.45 c -0.26,-0.1 -0.68,-0.36 -0.93,-0.56 c -0.25,-0.2 -0.67,-0.42 -0.95,-0.5 c -0.26,-0.07 -0.73,-0.28 -1.05,-0.48 c -0.31,-0.18 -0.83,-0.41 -1.17,-0.48 c -0.32,-0.08 -0.92,-0.31 -1.31,-0.5 c -0.38,-0.2 -1.08,-0.42 -1.57,-0.5 c -0.47,-0.08 -1.23,-0.31 -1.68,-0.51 c -0.52,-0.22 -1.22,-0.4 -1.97,-0.48 c -0.65,-0.08 -1.66,-0.31 -2.26,-0.51 c -0.61,-0.2 -1.53,-0.4 -2.08,-0.43 c -1.35,-0.11 -2.31,-0.28 -3.48,-0.62 c -0.55,-0.15 -1.7,-0.35 -2.56,-0.43 c -0.86,-0.08 -2.02,-0.28 -2.6,-0.45 c -0.98,-0.28 -1.38,-0.36 -3.91,-0.67 c -0.6,-0.07 -1.5,-0.27 -2,-0.45 c -0.51,-0.16 -1.35,-0.36 -1.86,-0.43 c -0.51,-0.07 -1.3,-0.28 -1.75,-0.48 c -0.45,-0.18 -1.11,-0.41 -1.48,-0.48 c -0.37,-0.07 -0.9,-0.31 -1.18,-0.51 c -0.27,-0.21 -0.71,-0.43 -0.96,-0.5 c -0.53,-0.15 -2.25,-1.77 -2.61,-2.5 c -0.12,-0.25 -0.32,-0.52 -0.43,-0.62 c -0.33,-0.27 -0.52,-0.76 -0.67,-1.71 c -0.07,-0.48 -0.2,-1.05 -0.26,-1.23 c -0.28,-0.73 -0.37,-1.42 -0.25,-1.9 c 0.52,-2.05 0.8,-2.87 1.06,-3.15 c 0.16,-0.17 0.38,-0.53 0.5,-0.8 c 0.22,-0.52 1.36,-1.73 2,-2.12 c 0.21,-0.12 0.51,-0.36 0.68,-0.52 c 0.17,-0.16 0.53,-0.37 0.81,-0.46 c 0.27,-0.1 0.72,-0.32 0.98,-0.5 c 0.26,-0.18 0.67,-0.36 0.93,-0.41 c 0.25,-0.03 1.12,-0.23 1.95,-0.45 c 2.01,-0.5 4.83,-0.67 8.12,-0.51 c 2.08,0.1 2.43,0.15 2.92,0.4 c 0.3,0.16 1.06,0.37 1.67,0.47 c 1.08,0.16 1.73,0.4 1.9,0.66 c 0.03,0.06 0.37,0.21 0.75,0.31 c 0.36,0.11 0.87,0.36 1.13,0.56 c 0.25,0.21 0.51,0.37 0.57,0.37 c 0.16,0 2.6,2.46 2.6,2.61 c 0,0.07 0.17,0.32 0.38,0.56 c 0.2,0.23 0.51,0.78 0.67,1.21 c 0.17,0.42 0.4,0.87 0.51,1 c 0.11,0.12 0.28,0.8 0.42,1.6 c 0.27,1.61 0.36,1.81 0.88,2 c 0.27,0.1 3.57,0.13 10.98,0.13 c 8.86,0 10.61,-0.02 10.81,-0.17 c 0.2,-0.13 0.23,-0.31 0.21,-0.82 c -0.05,-1.33 -0.27,-2.85 -0.52,-3.55 c -0.13,-0.4 -0.3,-1.21 -0.37,-1.81 c -0.08,-0.76 -0.23,-1.28 -0.5,-1.8 c -0.21,-0.38 -0.43,-0.98 -0.5,-1.31 c -0.07,-0.32 -0.27,-0.8 -0.45,-1.06 c -0.17,-0.26 -0.42,-0.82 -0.55,-1.26 c -0.13,-0.42 -0.36,-0.88 -0.51,-1.02 c -0.15,-0.12 -0.4,-0.52 -0.55,-0.87 c -0.16,-0.35 -0.35,-0.68 -0.42,-0.72 c -0.07,-0.05 -0.27,-0.35 -0.43,-0.67 c -0.16,-0.32 -0.47,-0.75 -0.68,-0.95 c -0.21,-0.21 -0.38,-0.45 -0.38,-0.53 c 0,-0.18 -4.3,-4.53 -4.47,-4.53 c -0.06,0 -0.31,-0.18 -0.56,-0.41 c -1.02,-0.91 -1.5,-1.26 -2.08,-1.53 c -0.33,-0.16 -0.73,-0.4 -0.88,-0.52 c -0.13,-0.13 -0.5,-0.31 -0.8,-0.38 c -0.3,-0.07 -0.71,-0.27 -0.91,-0.45 c -0.21,-0.17 -0.68,-0.42 -1.05,-0.55 c -0.36,-0.12 -0.87,-0.37 -1.13,-0.55 c -0.26,-0.17 -0.8,-0.38 -1.18,-0.46 c -0.38,-0.07 -0.85,-0.23 -1.02,-0.36 c -0.53,-0.38 -0.85,-0.51 -1.5,-0.63 c -0.35,-0.06 -1.05,-0.28 -1.56,-0.48 c -0.5,-0.21 -1.38,-0.43 -1.95,-0.51 c -0.57,-0.07 -1.43,-0.27 -1.93,-0.43 c -1.02,-0.33 -2.31,-0.5 -5.42,-0.68 c -1.2,-0.07 -3.01,-0.18 -4.03,-0.25 c -2.01,-0.13 -1.91,-0.13 -3.9,0.01 z"/>
  </g>
</svg>
